<?xml version="1.0" encoding="UTF-8"?>
<svg id="Camada_1" data-name="Camada 1" xmlns="http://www.w3.org/2000/svg" xmlns:xlink="http://www.w3.org/1999/xlink" viewBox="0 0 545.88 532.73">
  <defs>
    <style>
      .cls-1 {
        fill: url(#radial-gradient-7);
      }

      .cls-2 {
        fill: url(#radial-gradient-6);
      }

      .cls-3 {
        fill: url(#radial-gradient-5);
      }

      .cls-4 {
        fill: url(#radial-gradient-4);
      }

      .cls-5 {
        fill: url(#radial-gradient-9);
      }

      .cls-6 {
        fill: url(#radial-gradient-8);
      }

      .cls-7 {
        fill: url(#radial-gradient-3);
      }

      .cls-8 {
        fill: url(#radial-gradient-2);
      }

      .cls-9 {
        fill: url(#radial-gradient);
      }

      .cls-10 {
        fill: url(#radial-gradient-16);
      }

      .cls-11 {
        fill: url(#radial-gradient-12);
      }

      .cls-12 {
        fill: url(#radial-gradient-14);
      }

      .cls-13 {
        fill: url(#radial-gradient-13);
      }

      .cls-14 {
        fill: url(#radial-gradient-10);
      }

      .cls-15 {
        fill: url(#radial-gradient-17);
      }

      .cls-16 {
        fill: url(#radial-gradient-19);
      }

      .cls-17 {
        fill: url(#radial-gradient-11);
      }

      .cls-18 {
        fill: url(#radial-gradient-18);
      }

      .cls-19 {
        fill: url(#radial-gradient-15);
      }

      .cls-20 {
        fill: url(#radial-gradient-20);
      }

      .cls-21 {
        fill: url(#radial-gradient-21);
      }
    </style>
    <radialGradient id="radial-gradient" cx="299.2" cy="282.51" fx="299.2" fy="282.51" r="266.33" gradientUnits="userSpaceOnUse">
      <stop offset="0" stop-color="#fff"/>
      <stop offset=".78" stop-color="#f6f6f6"/>
    </radialGradient>
    <radialGradient id="radial-gradient-2" r="266.33" xlink:href="#radial-gradient"/>
    <radialGradient id="radial-gradient-3" cy="282.51" fy="282.51" r="266.33" xlink:href="#radial-gradient"/>
    <radialGradient id="radial-gradient-4" cx="299.2" cy="282.51" fx="299.2" fy="282.51" r="266.33" xlink:href="#radial-gradient"/>
    <radialGradient id="radial-gradient-5" cx="299.2" fx="299.2" r="266.33" xlink:href="#radial-gradient"/>
    <radialGradient id="radial-gradient-6" cx="299.2" cy="282.51" fx="299.2" fy="282.51" r="266.33" xlink:href="#radial-gradient"/>
    <radialGradient id="radial-gradient-7" cx="299.2" cy="282.51" fx="299.2" fy="282.51" r="266.33" xlink:href="#radial-gradient"/>
    <radialGradient id="radial-gradient-8" cx="264.61" cy="420.88" fx="264.61" fy="420.88" r="157.62" gradientUnits="userSpaceOnUse">
      <stop offset="0" stop-color="#959fff"/>
      <stop offset="1" stop-color="#6171ff"/>
    </radialGradient>
    <radialGradient id="radial-gradient-9" r="157.62" xlink:href="#radial-gradient-8"/>
    <radialGradient id="radial-gradient-10" cx="131.01" cy="235.99" fx="131.01" fy="235.99" r="135.72" gradientUnits="userSpaceOnUse">
      <stop offset="0" stop-color="#6171ff"/>
      <stop offset=".78" stop-color="#959fff"/>
    </radialGradient>
    <radialGradient id="radial-gradient-11" cx="208.54" cy="135.79" fx="208.54" fy="135.79" r="118.45" xlink:href="#radial-gradient-8"/>
    <radialGradient id="radial-gradient-12" cx="344.53" cy="121.47" fx="344.53" fy="121.47" r="103.69" xlink:href="#radial-gradient-8"/>
    <radialGradient id="radial-gradient-13" cx="425.65" cy="207.36" fx="425.65" fy="207.36" r="128.48" xlink:href="#radial-gradient-8"/>
    <radialGradient id="radial-gradient-14" cx="264.61" fx="264.61" r="157.62" xlink:href="#radial-gradient-8"/>
    <radialGradient id="radial-gradient-15" cx="183.18" cy="78.02" fx="183.18" fy="78.02" r="14.09" xlink:href="#radial-gradient"/>
    <radialGradient id="radial-gradient-16" cx="361.82" cy="76.77" fx="361.82" fy="76.77" r="14.33" xlink:href="#radial-gradient"/>
    <radialGradient id="radial-gradient-17" cx="474.13" cy="215.62" fx="474.13" fy="215.62" r="13.06" xlink:href="#radial-gradient"/>
    <radialGradient id="radial-gradient-18" cx="433.51" cy="391.35" fx="433.51" fy="391.35" r="14.99" xlink:href="#radial-gradient"/>
    <radialGradient id="radial-gradient-19" cx="273.71" cy="466.51" fx="273.71" fy="466.51" r="11.9" xlink:href="#radial-gradient"/>
    <radialGradient id="radial-gradient-20" cx="112.59" cy="387.12" fx="112.59" fy="387.12" r="14.48" xlink:href="#radial-gradient"/>
    <radialGradient id="radial-gradient-21" cx="75.04" cy="219.4" fx="75.04" fy="219.4" r="12.86" xlink:href="#radial-gradient"/>
  </defs>
  <g>
    <path class="cls-9" d="M117.58,105.07c1.34,0,2.61.65,3.39,1.73l13.85,19.37c-12.49,6.78-22.2,17.67-27.5,30.94-.66,1.64-2.18,2.7-3.88,2.7-.53,0-1.05-.11-1.56-.32l-17.86-7.48c-2.09-.87-3.09-3.29-2.25-5.4,6.77-16.82,18.36-30.95,33.51-40.86.69-.45,1.48-.69,2.29-.69M117.58,102.2c-1.33,0-2.67.37-3.86,1.15-15.63,10.23-27.64,24.9-34.6,42.19-1.43,3.56.26,7.63,3.8,9.11l17.86,7.48c.88.37,1.78.54,2.66.54,2.8,0,5.43-1.72,6.54-4.51,5.36-13.42,15.46-24.38,28.73-30.77l.38-.18-15.79-22.08c-1.37-1.91-3.52-2.93-5.72-2.93h0Z"/>
    <path class="cls-8" d="M52.94,285.19c.07,0,.15,0,.22,0l23.83,1.25c-2.69,14.23-.25,28.89,6.95,41.51.58,1.02.74,2.2.42,3.3-.3,1.05-.99,1.91-1.94,2.44l-16.98,9.3c-.62.34-1.28.51-1.98.51-1.51,0-2.9-.81-3.64-2.12-9.07-16.01-12.88-34.14-11.01-52.43.22-2.15,2-3.77,4.14-3.77M52.94,282.32c-3.59,0-6.62,2.74-6.99,6.35-1.92,18.87,2.05,37.69,11.37,54.14,1.29,2.28,3.68,3.57,6.14,3.57,1.14,0,2.29-.28,3.36-.86l16.98-9.3c3.46-1.9,4.59-6.24,2.63-9.67-7.17-12.57-9.46-27.32-6.18-41.7l.25-1.08-27.19-1.43c-.12,0-.25,0-.37,0h0Z"/>
    <path class="cls-7" d="M428.3,105.06c.81,0,1.61.24,2.29.69,15.15,9.91,26.74,24.05,33.51,40.87.85,2.1-.16,4.52-2.25,5.4l-17.86,7.48c-.5.21-1.03.32-1.56.32-1.7,0-3.22-1.06-3.88-2.7-5.3-13.27-15-24.16-27.5-30.94l13.85-19.37c.78-1.08,2.04-1.73,3.39-1.73M428.3,102.2c-2.19,0-4.35,1.02-5.72,2.93l-15.79,22.08.38.18c13.27,6.39,23.37,17.35,28.73,30.77,1.11,2.78,3.74,4.51,6.54,4.51.89,0,1.79-.17,2.66-.54l17.86-7.48c3.54-1.48,5.23-5.55,3.8-9.11-6.96-17.29-18.96-31.96-34.6-42.19-1.19-.78-2.53-1.15-3.86-1.15h0Z"/>
    <path class="cls-4" d="M379.4,432.67l15.81,17.82c1.48,1.67,1.37,4.21-.25,5.77-13.38,12.93-30.19,21.18-48.62,23.86-.2.03-.41.04-.61.04-2.04,0-3.76-1.45-4.11-3.44l-3.31-19.06c-.19-1.09.06-2.18.71-3.06.68-.94,1.71-1.54,2.89-1.71,14.6-2.02,27.8-9.17,37.48-20.23M379.33,428.26l-.35.44c-9.41,11.8-22.76,19.32-37.45,21.36-3.96.55-6.72,4.17-6.04,8.1l3.31,19.06c.59,3.41,3.57,5.82,6.94,5.82.34,0,.68-.02,1.03-.07,18.93-2.76,36.42-11.32,50.2-24.64,2.71-2.62,2.9-6.92.4-9.74l-18.03-20.32h0Z"/>
    <path class="cls-3" d="M492.94,285.19c2.14,0,3.92,1.62,4.14,3.77,1.87,18.29-1.94,36.42-11.01,52.43-.74,1.31-2.14,2.12-3.64,2.12-.7,0-1.36-.17-1.98-.51l-16.98-9.3c-.96-.52-1.65-1.39-1.94-2.44-.31-1.1-.16-2.28.42-3.3,7.21-12.62,9.64-27.28,6.95-41.51l23.83-1.25c.07,0,.15,0,.22,0M492.94,282.32c-.12,0-.25,0-.37,0l-27.19,1.43.25,1.08c3.28,14.38,1,29.14-6.17,41.7-1.96,3.43-.83,7.78,2.63,9.67l16.98,9.3c1.07.58,2.22.86,3.36.86,2.46,0,4.84-1.29,6.14-3.57,9.32-16.44,13.29-35.26,11.37-54.13-.37-3.61-3.4-6.35-6.99-6.35h0Z"/>
    <path class="cls-2" d="M166.47,432.67c9.68,11.06,22.88,18.2,37.48,20.23,1.18.16,2.21.77,2.89,1.71.65.89.9,1.98.71,3.06l-3.31,19.06c-.35,1.99-2.07,3.44-4.11,3.44-.2,0-.41-.01-.61-.04-18.43-2.68-35.24-10.93-48.62-23.86-1.62-1.57-1.73-4.1-.25-5.77l15.81-17.82M166.55,428.26l-18.03,20.32c-2.5,2.82-2.31,7.12.4,9.74,13.78,13.32,31.26,21.88,50.2,24.64.34.05.69.07,1.03.07,3.37,0,6.34-2.41,6.94-5.82l3.31-19.06c.68-3.94-2.08-7.55-6.04-8.1-14.69-2.04-28.04-9.55-37.45-21.36l-.35-.43h0Z"/>
    <path class="cls-1" d="M272.94,38.71c8.86,0,17.67,1.34,26.17,3.98,2.23.69,3.48,2.95,2.86,5.13l-5.29,18.6c-.5,1.76-2.1,2.95-3.97,2.95-.46,0-.91-.07-1.35-.21-6.01-1.92-12.21-2.9-18.42-2.9s-12.41.98-18.42,2.9c-.44.14-.9.21-1.35.21-1.88,0-3.47-1.19-3.97-2.95l-5.29-18.6c-.62-2.19.64-4.44,2.86-5.13,8.5-2.64,17.31-3.98,26.17-3.98M272.94,35.84c-9.1,0-18.2,1.37-27.02,4.11-3.67,1.14-5.82,4.96-4.77,8.65l5.29,18.6c.88,3.1,3.69,5.03,6.73,5.03.74,0,1.49-.11,2.23-.35,5.72-1.83,11.63-2.76,17.55-2.76s11.82.93,17.54,2.76c.74.24,1.49.35,2.23.35,3.05,0,5.85-1.94,6.73-5.03l5.29-18.6c1.05-3.7-1.1-7.51-4.77-8.65-8.82-2.74-17.92-4.11-27.02-4.11h0Z"/>
  </g>
  <g>
    <path class="cls-6" d="M309.73,364.09c-.9-5.18-5.39-8.96-10.65-8.96h-52.29c-5.26,0-9.75,3.78-10.65,8.96l-27.09,155.98c-1.15,6.61,3.94,12.66,10.65,12.66h106.48c6.71,0,11.8-6.05,10.65-12.66l-27.09-155.98ZM330.06,525.19c-.57.67-1.83,1.81-3.88,1.81h-106.48c-2.05,0-3.31-1.13-3.88-1.81-.57-.67-1.47-2.11-1.12-4.13l27.09-155.98c.42-2.44,2.53-4.2,5-4.2h52.29c2.47,0,4.57,1.77,5,4.2l27.09,155.98c.35,2.02-.55,3.46-1.12,4.13Z"/>
    <path class="cls-5" d="M218.93,341.72l-32.61-40.89c-2.11-2.65-5.25-4.07-8.46-4.07-1.77,0-3.55.43-5.19,1.33l-138.84,76.07c-5.88,3.22-7.44,10.97-3.26,16.22l66.39,83.25c2.16,2.7,5.3,4.07,8.45,4.07,2.96,0,5.93-1.21,8.08-3.64l105.06-118.44c3.49-3.93,3.64-9.8.36-13.91ZM214.28,351.83l-105.06,118.43c-.98,1.1-2.32,1.71-3.79,1.71-1.55,0-3-.7-3.97-1.91l-66.39-83.25c-1.28-1.61-1.18-3.3-1.01-4.16s.73-2.46,2.54-3.45l138.84-76.07c.76-.41,1.58-.62,2.43-.62,1.56,0,3,.7,3.97,1.91l32.61,40.89c1.54,1.93,1.47,4.68-.17,6.53Z"/>
    <path class="cls-14" d="M168.92,279.09c5.01,0,9.41-3.47,10.53-8.4l11.64-50.98c1.17-5.12-1.52-10.35-6.36-12.38l-146.04-61.12c-1.37-.57-2.79-.84-4.17-.84-4.86,0-9.38,3.32-10.54,8.41L.28,257.58c-1.49,6.54,3.27,12.85,9.97,13.2l158.1,8.3c.19.01.38.01.57.01ZM6.76,263.05c-.53-.7-1.36-2.18-.9-4.19l23.69-103.81c.53-2.33,2.57-3.95,4.95-3.95.67,0,1.32.13,1.95.4l146.04,61.12c2.28.95,3.54,3.4,2.99,5.81l-11.64,50.98c-.53,2.32-2.56,3.94-4.94,3.94-.09,0-.18,0-.27,0l-158.1-8.3c-2.05-.11-3.25-1.3-3.78-2.01Z"/>
    <path class="cls-17" d="M196.88,192.08c2.09,2.92,5.4,4.52,8.8,4.52,1.58,0,3.18-.35,4.68-1.07l47.12-22.69c4.74-2.28,7.14-7.64,5.71-12.69L219.92,7.86C218.55,3.03,214.16,0,209.51,0c-1.56,0-3.16.34-4.68,1.08l-95.94,46.2c-6.04,2.91-8,10.57-4.1,16.02l92.09,128.78ZM108.67,55.76c.22-.85.86-2.42,2.71-3.31L207.32,6.24c.7-.34,1.44-.51,2.19-.51,2.26,0,4.27,1.52,4.89,3.69l43.27,152.29c.68,2.38-.45,4.88-2.68,5.96l-47.12,22.69c-.69.33-1.43.5-2.19.5-1.64,0-3.18-.79-4.13-2.12L109.46,59.96c-1.2-1.67-1.01-3.35-.79-4.21Z"/>
    <path class="cls-11" d="M288.4,172.84l47.12,22.69c1.5.72,3.1,1.07,4.68,1.07,3.4,0,6.71-1.61,8.8-4.52l92.09-128.78c3.9-5.46,1.94-13.11-4.1-16.02L341.04,1.08C339.52.34,337.93,0,336.36,0c-4.65,0-9.03,3.03-10.41,7.86l-43.27,152.29c-1.44,5.06.97,10.41,5.71,12.69ZM288.21,161.72L331.47,9.43c.62-2.17,2.63-3.69,4.89-3.69.76,0,1.49.17,2.19.51l95.94,46.2c1.85.89,2.49,2.46,2.71,3.31.22.85.41,2.54-.79,4.21l-92.09,128.78c-.95,1.33-2.49,2.12-4.13,2.12-.76,0-1.5-.17-2.2-.5l-47.12-22.69c-2.23-1.07-3.35-3.58-2.68-5.96Z"/>
    <path class="cls-13" d="M545.6,257.58l-23.69-103.81c-1.16-5.09-5.68-8.41-10.54-8.41-1.38,0-2.8.27-4.17.84l-146.04,61.12c-4.85,2.03-7.53,7.25-6.36,12.38l11.64,50.98c1.13,4.94,5.52,8.4,10.53,8.4.19,0,.38,0,.57-.02l158.1-8.3c6.7-.35,11.46-6.66,9.97-13.2ZM539.11,263.05c-.53.7-1.73,1.9-3.78,2.01l-158.1,8.3c-.09,0-.18,0-.27,0-2.38,0-4.41-1.62-4.94-3.94l-11.64-50.98c-.55-2.41.71-4.85,2.99-5.81l146.04-61.12c.63-.26,1.29-.4,1.96-.4,2.38,0,4.42,1.62,4.95,3.95l23.69,103.81c.46,2-.37,3.48-.9,4.19Z"/>
    <path class="cls-12" d="M512.04,374.16l-138.84-76.07c-1.64-.9-3.42-1.33-5.19-1.33-3.2,0-6.34,1.42-8.46,4.07l-32.6,40.89c-3.28,4.11-3.12,9.98.36,13.91l105.06,118.44c2.16,2.43,5.12,3.64,8.08,3.64,3.15,0,6.3-1.37,8.45-4.07l66.39-83.25c4.18-5.25,2.63-12.99-3.26-16.22ZM510.81,386.8l-66.39,83.25c-.97,1.21-2.41,1.91-3.97,1.91-1.47,0-2.82-.61-3.79-1.71l-105.06-118.43c-1.64-1.85-1.71-4.6-.17-6.53l32.6-40.89c.97-1.21,2.42-1.91,3.97-1.91.86,0,1.67.21,2.43.62l138.84,76.07c1.8.99,2.36,2.59,2.54,3.45.17.86.27,2.56-1.01,4.16Z"/>
  </g>
  <g>
    <path class="cls-19" d="M180.83,92.41l-11.43-23.73,7.9-3.8c1.84-.89,3.51-1.3,4.99-1.24,1.48.07,2.76.49,3.83,1.27s1.93,1.83,2.57,3.17c.61,1.27.89,2.57.84,3.92-.05,1.35-.52,2.63-1.41,3.85-.89,1.22-2.27,2.28-4.14,3.18l-4.47,2.15,4.64,9.63-3.33,1.6ZM178.29,78.6l4.33-2.09c1.64-.79,2.66-1.79,3.04-2.99.38-1.2.26-2.44-.36-3.73-.63-1.31-1.51-2.17-2.64-2.57-1.13-.4-2.53-.2-4.22.61l-4.33,2.09,4.18,8.68ZM193.1,86.5l-10.11-8.12,3.67-1.77,10.31,8.03-3.87,1.86Z"/>
    <path class="cls-10" d="M348.67,84.98l11.63-23.64,14.67,7.22-1.36,2.77-11.35-5.58-3.72,7.56,10.36,5.09-1.33,2.7-10.36-5.09-3.85,7.83,11.35,5.58-1.36,2.77-14.67-7.22Z"/>
    <path class="cls-15" d="M459.71,219.42l23.49-15.32.9,3.89-20.08,12.71,23.64,2.64.88,3.82-27.83-3.42-1-4.32Z"/>
    <path class="cls-18" d="M428.22,376.78l20.7,16.29-10.11,12.85-2.43-1.91,7.82-9.94-6.62-5.21-7.14,9.07-2.37-1.86,7.14-9.07-6.86-5.4-7.82,9.94-2.43-1.91,10.11-12.85Z"/>
    <path class="cls-16" d="M284.1,453.4l-.18,26.34-3.7-.02-13.07-20.3-.13,20.21-3.7-.03.18-26.34,3.7.02,13.07,20.26.13-20.17,3.7.03Z"/>
    <path class="cls-20" d="M124.98,376.97c1.13,1.43,1.87,2.96,2.21,4.57.34,1.62.19,3.25-.46,4.87-.65,1.63-1.89,3.17-3.74,4.64l-12.92,10.23-2.3-2.9,12.95-10.25c1.24-.98,2.1-1.99,2.57-3.03.47-1.04.62-2.07.43-3.1-.19-1.03-.67-2.03-1.43-3-.78-.99-1.65-1.68-2.6-2.1-.95-.41-1.98-.5-3.09-.27-1.11.23-2.29.84-3.53,1.82l-12.95,10.25-2.3-2.9,12.92-10.23c1.85-1.46,3.64-2.32,5.38-2.56,1.74-.25,3.37,0,4.88.71,1.52.72,2.84,1.8,3.97,3.23Z"/>
    <path class="cls-21" d="M86.15,230.21l-25.73-5.65,3.51-15.97,3.01.66-2.72,12.36,8.24,1.81,2.47-11.28,2.94.65-2.48,11.27,8.53,1.87,2.72-12.36,3.01.66-3.51,15.97Z"/>
  </g>
</svg>