<?xml version="1.0" encoding="UTF-8"?>
<svg id="Layer_1" xmlns="http://www.w3.org/2000/svg" version="1.1" viewBox="0 0 590.35 154.84">
  <!-- Generator: Adobe Illustrator 30.1.0, SVG Export Plug-In . SVG Version: 2.1.1 Build 136)  -->
  <defs>
    <style>
      .st0 {
        fill: #808fef;
      }
    </style>
  </defs>
  <g>
    <path class="st0" d="M196.74,72.55c-1.59-2.29-3.66-4.06-6.2-5.3-2.55-1.24-5.53-1.86-8.97-1.86-4.39,0-8.35,1.1-11.88,3.29-3.53,2.19-6.3,5.19-8.3,8.97-2,3.79-3.01,8.13-3.01,13.03s1,9.06,3.01,12.88c2,3.82,4.72,6.81,8.16,8.97,3.43,2.16,7.35,3.24,11.74,3.24,2.61,0,4.9-.35,6.87-1.05,1.97-.7,3.66-1.64,5.06-2.82,1.4-1.18,2.58-2.43,3.53-3.77l1.53,6.49h11.83V45.93h-13.36v26.62ZM195.54,97.64c-1.05,2.04-2.53,3.63-4.44,4.77-1.91,1.14-4.1,1.72-6.58,1.72s-4.58-.57-6.49-1.72c-1.91-1.15-3.39-2.75-4.44-4.82-1.05-2.07-1.57-4.44-1.57-7.11s.53-4.93,1.57-6.97c1.05-2.04,2.53-3.63,4.44-4.77,1.91-1.14,4.07-1.72,6.49-1.72s4.68.57,6.58,1.72c1.91,1.15,3.39,2.74,4.44,4.77,1.05,2.04,1.57,4.39,1.57,7.06s-.52,5.03-1.57,7.06Z"/>
    <path class="st0" d="M258.43,68.54c-3.59-2.1-7.78-3.15-12.55-3.15s-9.3,1.11-13.02,3.34c-3.72,2.23-6.62,5.26-8.68,9.11-2.07,3.85-3.1,8.25-3.1,13.22s1.05,9.21,3.15,12.93c2.1,3.72,5.01,6.62,8.73,8.68,3.72,2.07,8,3.1,12.83,3.1,3.82,0,7.25-.72,10.31-2.15,3.05-1.43,5.64-3.35,7.78-5.77,2.13-2.42,3.64-5.12,4.53-8.11h-13.65c-.76,1.53-1.89,2.77-3.39,3.72-1.5.95-3.39,1.43-5.68,1.43s-4.29-.51-6.01-1.53c-1.72-1.02-3.05-2.46-4.01-4.34-.76-1.5-1.21-3.21-1.36-5.1h35.23c.13-.89.21-1.72.24-2.48.03-.76.05-1.46.05-2.1,0-4.64-1-8.75-3.01-12.31-2-3.56-4.8-6.39-8.4-8.49ZM234.58,85.81c.25-1.36.64-2.57,1.18-3.63,1.02-1.97,2.42-3.47,4.2-4.48,1.78-1.02,3.75-1.53,5.92-1.53,2.86,0,5.26.88,7.2,2.62,1.94,1.75,3.01,4.09,3.2,7.01h-21.7Z"/>
    <path class="st0" d="M314.15,67.68c-3.34-1.53-7.27-2.29-11.78-2.29-4.07,0-7.71.72-10.93,2.15-3.21,1.43-5.77,3.4-7.68,5.92-1.91,2.51-3.05,5.49-3.43,8.92h12.98c.38-2.04,1.38-3.56,3.01-4.58,1.62-1.02,3.61-1.53,5.96-1.53,2.16,0,3.9.38,5.2,1.15,1.3.76,2.26,1.89,2.86,3.39.6,1.5.91,3.39.91,5.68h-11.83c-4.58,0-8.4.64-11.45,1.91-3.05,1.27-5.31,3.02-6.77,5.25-1.46,2.23-2.2,4.77-2.2,7.63,0,2.67.62,5.1,1.86,7.3,1.24,2.19,3.18,3.95,5.82,5.25,2.64,1.3,5.93,1.96,9.88,1.96,1.91,0,3.64-.21,5.2-.62,1.56-.41,2.97-.99,4.25-1.72,1.27-.73,2.4-1.61,3.39-2.62.99-1.02,1.8-2.16,2.43-3.44l1.53,7.25h11.26v-29.77c0-4.2-.91-7.73-2.72-10.59-1.81-2.86-4.39-5.06-7.73-6.58ZM310.67,94.59c-.19,1.53-.57,2.94-1.15,4.25-.57,1.3-1.3,2.47-2.2,3.48-.89,1.02-1.97,1.8-3.24,2.34-1.27.54-2.7.81-4.29.81-1.34,0-2.51-.19-3.53-.57-1.02-.38-1.81-.99-2.39-1.81-.57-.83-.86-1.81-.86-2.96,0-1.08.29-2.05.86-2.91.57-.86,1.45-1.53,2.62-2,1.18-.48,2.69-.72,4.53-.72h9.64v.1Z"/>
    <rect class="st0" x="336.62" y="45.93" width="13.36" height="68.7"/>
    <polygon class="st0" points="409.43 103.27 398.74 66.54 388.05 66.54 377.35 103.29 367.73 66.54 358.28 66.54 372.4 114.63 382.14 114.63 393.39 76.19 404.65 114.63 414.48 114.63 428.6 66.54 418.97 66.54 409.43 103.27"/>
    <rect class="st0" x="437.86" y="66.54" width="9.54" height="48.09"/>
    <path class="st0" d="M442.73,45.45c-1.85,0-3.36.56-4.53,1.67-1.18,1.11-1.77,2.53-1.77,4.25s.59,3.24,1.77,4.39c1.18,1.14,2.69,1.72,4.53,1.72s3.28-.57,4.49-1.72c1.21-1.15,1.81-2.61,1.81-4.39s-.61-3.13-1.81-4.25c-1.21-1.11-2.71-1.67-4.49-1.67Z"/>
    <path class="st0" d="M489.77,88.48c-2.67-.95-5.69-1.75-9.06-2.39-2.35-.51-4.34-1.06-5.96-1.67-1.62-.6-2.85-1.35-3.67-2.24-.83-.89-1.24-1.91-1.24-3.05,0-1.78.73-3.21,2.2-4.29,1.46-1.08,3.56-1.62,6.3-1.62s4.93.59,6.58,1.77c1.65,1.18,2.61,2.85,2.86,5.01h9.26c-.57-4.64-2.48-8.24-5.73-10.78-3.24-2.54-7.54-3.82-12.88-3.82-3.69,0-6.89.62-9.59,1.86-2.7,1.24-4.79,2.96-6.25,5.15-1.46,2.19-2.2,4.66-2.2,7.39,0,2.29.48,4.22,1.43,5.77.95,1.56,2.24,2.85,3.86,3.86,1.62,1.02,3.47,1.86,5.53,2.53,2.07.67,4.21,1.19,6.44,1.57,2.35.45,4.37.94,6.06,1.48,1.68.54,2.96,1.27,3.82,2.19.86.92,1.29,2.27,1.29,4.06,0,1.21-.32,2.34-.95,3.39-.64,1.05-1.64,1.88-3.01,2.48-1.37.61-3.1.91-5.2.91-2.23,0-4.15-.38-5.77-1.15-1.62-.76-2.9-1.78-3.82-3.05-.92-1.27-1.54-2.67-1.86-4.2h-9.73c.38,3.24,1.46,6.08,3.25,8.49,1.78,2.42,4.2,4.29,7.25,5.63,3.05,1.34,6.62,2,10.69,2s7.24-.64,10.07-1.91c2.83-1.27,5.02-3.05,6.58-5.34,1.56-2.29,2.3-4.93,2.24-7.92,0-3.43-.8-6.07-2.39-7.92-1.59-1.84-3.72-3.24-6.39-4.2Z"/>
    <path class="st0" d="M551.69,76.89c-1.85-3.47-4.45-6.25-7.82-8.35-3.37-2.1-7.41-3.15-12.12-3.15s-8.84,1.07-12.4,3.2c-3.56,2.13-6.35,5.09-8.35,8.87-2,3.79-3.01,8.22-3.01,13.31s1,9.32,3.01,13.07c2,3.75,4.79,6.68,8.35,8.78,3.56,2.1,7.63,3.15,12.21,3.15,3.75,0,7.08-.67,9.97-2,2.9-1.34,5.33-3.16,7.3-5.49,1.97-2.32,3.37-4.95,4.2-7.87h-9.54c-.95,2.29-2.42,4.1-4.39,5.44-1.97,1.34-4.49,2-7.54,2-2.55,0-4.9-.62-7.06-1.86-2.16-1.24-3.9-3.08-5.2-5.53-1.12-2.11-1.73-4.65-1.89-7.59h36.86c.06-.89.11-1.7.14-2.43.03-.73.05-1.42.05-2.05,0-4.2-.92-8.03-2.77-11.5ZM517.5,86.1c.26-2.26.85-4.23,1.8-5.87,1.3-2.26,3.04-3.97,5.2-5.15,2.16-1.18,4.55-1.77,7.16-1.77,3.69,0,6.77,1.13,9.25,3.39,2.48,2.26,3.82,5.39,4.01,9.4h-27.42Z"/>
  </g>
  <g>
    <path class="st0" d="M132.07,80.05c0-5.13-.81-10.18-2.41-15.04h-62.26c-8.28,0-15.01,6.73-15.01,15.01v15.06h77.27c1.6-4.85,2.41-9.91,2.41-15.04Z"/>
    <path class="st0" d="M94.63,33.14c-5.58,2.36-9.17,7.73-9.17,13.81v15.06h43.1c-5.87-14.48-18.67-25.41-33.93-28.87Z"/>
    <path class="st0" d="M35.86,113.14v15.01h48.11c19.63,0,37.29-12,44.6-30.07H50.92c-8.3,0-15.06,6.75-15.06,15.06Z"/>
  </g>
</svg>