<?xml version="1.0" encoding="UTF-8"?>
<svg id="Layer_1" data-name="Layer 1" xmlns="http://www.w3.org/2000/svg" viewBox="0 0 380.7 371.53">
  <defs>
    <style>
      .cls-1 {
        fill: #f2f2f2;
      }

      .cls-2 {
        fill: #6171ff;
      }
    </style>
  </defs>
  <g>
    <path class="cls-1" d="M82,73.27c.94,0,1.82.45,2.36,1.21l9.66,13.51c-8.71,4.73-15.48,12.32-19.18,21.57-.46,1.14-1.52,1.88-2.7,1.88-.37,0-.73-.07-1.09-.22l-12.46-5.21c-1.45-.61-2.16-2.3-1.57-3.76,4.72-11.73,12.8-21.58,23.37-28.5.48-.31,1.03-.48,1.6-.48M82,71.27c-.93,0-1.86.26-2.69.8-10.9,7.14-19.28,17.37-24.13,29.43-1,2.48.18,5.32,2.65,6.36l12.46,5.21c.61.26,1.24.38,1.86.38,1.95,0,3.78-1.2,4.56-3.14,3.74-9.36,10.78-17,20.04-21.46l.27-.13-11.01-15.4c-.95-1.33-2.46-2.04-3.99-2.04h0Z"/>
    <path class="cls-1" d="M36.92,198.89c.05,0,.1,0,.15,0l16.62.87c-1.88,9.92-.18,20.15,4.85,28.95.41.71.51,1.53.29,2.3-.21.73-.69,1.33-1.35,1.7l-11.84,6.49c-.43.24-.89.36-1.38.36-1.05,0-2.02-.57-2.54-1.48-6.33-11.16-8.98-23.81-7.68-36.56.15-1.5,1.39-2.63,2.88-2.63M36.92,196.89c-2.5,0-4.62,1.91-4.87,4.43-1.34,13.16,1.43,26.29,7.93,37.75.9,1.59,2.57,2.49,4.28,2.49.79,0,1.6-.19,2.34-.6l11.84-6.49c2.42-1.32,3.2-4.35,1.84-6.75-5-8.77-6.6-19.06-4.31-29.08l.17-.75-18.96-.99c-.09,0-.17,0-.26,0h0Z"/>
    <path class="cls-1" d="M298.7,73.27c.57,0,1.12.17,1.6.48,10.57,6.91,18.65,16.77,23.37,28.5.59,1.47-.11,3.16-1.57,3.76l-12.46,5.21c-.35.15-.72.22-1.09.22-1.18,0-2.25-.74-2.7-1.88-3.7-9.25-10.46-16.85-19.18-21.57l9.66-13.51c.54-.76,1.42-1.21,2.36-1.21M298.7,71.27c-1.53,0-3.04.71-3.99,2.04l-11.01,15.4.27.13c9.26,4.46,16.3,12.1,20.03,21.46.78,1.94,2.61,3.14,4.56,3.14.62,0,1.25-.12,1.86-.38l12.46-5.21c2.47-1.03,3.65-3.87,2.65-6.36-4.85-12.06-13.23-22.29-24.13-29.43-.83-.54-1.77-.8-2.69-.8h0Z"/>
    <path class="cls-1" d="M264.6,301.74l11.03,12.43c1.03,1.17.96,2.93-.17,4.03-9.33,9.02-21.05,14.77-33.91,16.64-.14.02-.29.03-.43.03-1.42,0-2.62-1.01-2.87-2.4l-2.31-13.29c-.13-.76.04-1.52.5-2.14.48-.65,1.19-1.08,2.02-1.19,10.18-1.41,19.39-6.4,26.14-14.11M264.55,298.67l-.24.3c-6.57,8.23-15.87,13.47-26.12,14.89-2.76.38-4.69,2.91-4.21,5.65l2.31,13.29c.41,2.38,2.49,4.06,4.84,4.06.24,0,.47-.02.71-.05,13.21-1.92,25.4-7.89,35.01-17.18,1.89-1.83,2.02-4.82.28-6.79l-12.57-14.17h0Z"/>
    <path class="cls-1" d="M343.78,198.89c1.49,0,2.73,1.13,2.88,2.63,1.3,12.76-1.35,25.4-7.68,36.56-.52.91-1.49,1.48-2.54,1.48-.49,0-.95-.12-1.38-.36l-11.84-6.49c-.67-.37-1.15-.97-1.35-1.7-.22-.77-.11-1.59.29-2.3,5.02-8.8,6.72-19.02,4.85-28.95l16.62-.87c.05,0,.1,0,.15,0M343.78,196.89c-.09,0-.17,0-.26,0l-18.96.99.17.75c2.29,10.03.7,20.32-4.31,29.08-1.37,2.39-.58,5.42,1.84,6.75l11.84,6.49c.74.41,1.55.6,2.34.6,1.71,0,3.38-.9,4.28-2.49,6.5-11.47,9.27-24.59,7.93-37.75-.26-2.52-2.37-4.43-4.87-4.43h0Z"/>
    <path class="cls-1" d="M116.1,301.74c6.75,7.71,15.96,12.69,26.14,14.11.82.11,1.54.54,2.02,1.19.45.62.63,1.38.5,2.14l-2.31,13.29c-.24,1.39-1.45,2.4-2.87,2.4-.14,0-.29-.01-.43-.03-12.85-1.87-24.58-7.62-33.9-16.64-1.13-1.09-1.21-2.86-.17-4.03l11.03-12.43M116.15,298.67l-12.57,14.17c-1.75,1.97-1.61,4.96.28,6.79,9.61,9.29,21.8,15.26,35.01,17.18.24.03.48.05.71.05,2.35,0,4.42-1.68,4.84-4.06l2.31-13.29c.48-2.74-1.45-5.27-4.21-5.65-10.25-1.42-19.56-6.66-26.12-14.89l-.24-.3h0Z"/>
    <path class="cls-1" d="M190.35,27c6.18,0,12.32.93,18.25,2.78,1.55.48,2.43,2.05,2,3.58l-3.69,12.97c-.35,1.23-1.46,2.06-2.77,2.06-.32,0-.64-.05-.94-.15-4.19-1.34-8.51-2.02-12.84-2.02s-8.65.68-12.85,2.02c-.31.1-.63.15-.94.15-1.31,0-2.42-.83-2.77-2.06l-3.69-12.97c-.43-1.52.44-3.1,2-3.58,5.93-1.84,12.07-2.78,18.25-2.78M190.35,25c-6.35,0-12.69.96-18.85,2.87-2.56.8-4.06,3.46-3.33,6.04l3.69,12.97c.61,2.16,2.57,3.51,4.7,3.51.51,0,1.04-.08,1.55-.24,3.99-1.28,8.11-1.93,12.24-1.93s8.25.65,12.24,1.93c.52.17,1.04.24,1.55.24,2.13,0,4.08-1.35,4.7-3.51l3.69-12.97c.73-2.58-.77-5.24-3.33-6.04-6.15-1.91-12.5-2.87-18.84-2.87h0Z"/>
  </g>
  <g>
    <g id="_Radial_Repeat_" data-name="&amp;lt;Radial Repeat&amp;gt;">
      <path class="cls-2" d="M208.58,249.67c2.7,0,4.99,1.93,5.46,4.59l18.89,108.78c.28,1.61-.16,3.26-1.22,4.51-1.05,1.25-2.6,1.97-4.24,1.97h-74.26c-1.64,0-3.18-.72-4.24-1.97-1.05-1.25-1.5-2.9-1.22-4.51l18.89-108.78c.46-2.66,2.76-4.59,5.46-4.59h36.47M208.58,247.67h-36.47c-3.67,0-6.8,2.64-7.43,6.25l-18.89,108.78c-.8,4.61,2.75,8.83,7.43,8.83h74.26c4.68,0,8.23-4.22,7.43-8.83l-18.89-108.78c-.63-3.61-3.76-6.25-7.43-6.25h0Z"/>
    </g>
    <g id="_Radial_Repeat_-2" data-name="&amp;lt;Radial Repeat&amp;gt;">
      <path class="cls-2" d="M124.05,208.96h0c1.7,0,3.28.76,4.33,2.09l22.74,28.51c1.68,2.11,1.6,5.11-.19,7.13l-73.27,82.6c-1.07,1.2-2.54,1.86-4.14,1.86-1.7,0-3.27-.76-4.33-2.09l-46.3-58.06c-1.02-1.28-1.42-2.94-1.1-4.54.32-1.61,1.33-2.98,2.77-3.77l96.83-53.05c.81-.45,1.73-.68,2.66-.68M124.05,206.96c-1.23,0-2.48.3-3.62.93l-96.83,53.05c-4.1,2.25-5.19,7.65-2.27,11.31l46.3,58.06c1.5,1.89,3.7,2.84,5.9,2.84,2.06,0,4.13-.84,5.64-2.54l73.27-82.6c2.43-2.74,2.54-6.84.25-9.7l-22.74-28.51c-1.47-1.85-3.66-2.84-5.9-2.84h0Z"/>
    </g>
    <g id="_Radial_Repeat_-3" data-name="&amp;lt;Radial Repeat&amp;gt;">
      <path class="cls-2" d="M24.07,103.38h0c.73,0,1.45.15,2.14.43l101.85,42.63c2.49,1.04,3.86,3.71,3.26,6.34l-8.12,35.56c-.58,2.54-2.8,4.31-5.4,4.31-.1,0-.2,0-.29,0l-110.26-5.78c-1.64-.09-3.14-.88-4.13-2.19-.99-1.31-1.34-2.97-.98-4.57l16.52-72.4c.58-2.54,2.8-4.31,5.4-4.31M24.07,101.38c-3.39,0-6.54,2.31-7.35,5.86L.19,179.64c-1.04,4.56,2.28,8.96,6.95,9.2l110.26,5.78c.13,0,.27.01.4.01,3.5,0,6.56-2.42,7.34-5.86l8.12-35.56c.82-3.57-1.06-7.22-4.44-8.63L26.98,101.96c-.96-.4-1.94-.59-2.91-.59h0Z"/>
    </g>
    <g id="_Radial_Repeat_-4" data-name="&amp;lt;Radial Repeat&amp;gt;">
      <path class="cls-2" d="M146.12,2c2.47,0,4.66,1.66,5.33,4.03l30.17,106.21c.74,2.6-.49,5.33-2.92,6.5l-32.86,15.82c-.76.36-1.56.55-2.4.55-1.79,0-3.47-.87-4.51-2.32L74.71,42.98c-.95-1.33-1.27-3.01-.86-4.59.41-1.59,1.49-2.91,2.96-3.62L143.72,2.55c.76-.37,1.57-.55,2.4-.55M146.11,0c-1.09,0-2.2.24-3.26.75l-66.91,32.22c-4.22,2.03-5.58,7.37-2.86,11.18l64.22,89.81c1.46,2.03,3.77,3.15,6.14,3.15,1.1,0,2.22-.24,3.27-.75l32.86-15.82c3.3-1.59,4.98-5.33,3.98-8.85L153.37,5.48C152.41,2.11,149.36,0,146.11,0h0Z"/>
    </g>
    <g id="_Radial_Repeat_-5" data-name="&amp;lt;Radial Repeat&amp;gt;">
      <path class="cls-2" d="M234.58,2h0c.83,0,1.64.19,2.4.55l66.91,32.22c1.48.71,2.56,2.03,2.96,3.62.41,1.59.09,3.26-.86,4.59l-64.22,89.81c-1.04,1.45-2.72,2.32-4.51,2.32-.84,0-1.64-.18-2.4-.55l-32.86-15.82c-2.43-1.17-3.66-3.91-2.92-6.5L229.25,6.03c.67-2.37,2.87-4.03,5.33-4.03M234.58,0c-3.24,0-6.3,2.11-7.26,5.48l-30.17,106.21c-1,3.53.68,7.26,3.98,8.85l32.86,15.82c1.05.51,2.16.75,3.27.75,2.37,0,4.68-1.12,6.14-3.15l64.22-89.81c2.72-3.81,1.35-9.15-2.86-11.18L237.84.75C236.78.24,235.67,0,234.58,0h0Z"/>
    </g>
    <g id="_Radial_Repeat_-6" data-name="&amp;lt;Radial Repeat&amp;gt;">
      <path class="cls-2" d="M356.63,103.38h0c2.6,0,4.82,1.77,5.4,4.31l16.52,72.4c.36,1.6,0,3.26-.98,4.57s-2.49,2.11-4.13,2.19l-110.26,5.78c-.1,0-.2,0-.29,0-2.6,0-4.82-1.77-5.4-4.31l-8.12-35.56c-.6-2.63.77-5.3,3.26-6.34l101.85-42.63c.69-.29,1.41-.43,2.14-.43M356.63,101.38c-.97,0-1.95.19-2.91.59l-101.85,42.63c-3.38,1.42-5.25,5.06-4.44,8.63l8.12,35.56c.79,3.44,3.85,5.86,7.34,5.86.13,0,.27,0,.4-.01l110.26-5.78c4.67-.25,7.99-4.64,6.95-9.2l-16.52-72.4c-.81-3.55-3.96-5.86-7.35-5.86h0Z"/>
    </g>
    <g id="_Radial_Repeat_-7" data-name="&amp;lt;Radial Repeat&amp;gt;">
      <path class="cls-2" d="M256.65,208.96h0c.92,0,1.84.24,2.66.68l96.83,53.05c1.44.79,2.45,2.16,2.77,3.77.32,1.61-.08,3.26-1.1,4.54l-46.3,58.06c-1.06,1.33-2.64,2.09-4.33,2.09-1.6,0-3.08-.66-4.14-1.86l-73.27-82.6c-1.79-2.02-1.87-5.02-.19-7.13l22.74-28.51c1.06-1.33,2.64-2.09,4.33-2.09M256.65,206.96c-2.23,0-4.42.99-5.9,2.84l-22.74,28.51c-2.29,2.87-2.18,6.96.25,9.7l73.27,82.6c1.5,1.7,3.57,2.54,5.64,2.54,2.2,0,4.39-.95,5.9-2.84l46.3-58.06c2.92-3.66,1.83-9.06-2.27-11.31l-96.83-53.05c-1.14-.63-2.39-.93-3.62-.93h0Z"/>
    </g>
  </g>
</svg>