<?xml version="1.0" encoding="UTF-8"?>
<svg id="Layer_1" data-name="Layer 1" xmlns="http://www.w3.org/2000/svg" viewBox="0 0 561.68 279">
  <defs>
    <style>
      .cls-1 {
        fill: #11257c;
      }
    </style>
  </defs>
  <g>
    <path class="cls-1" d="M154.65,248.97v-22.06h7.75c1.56,0,2.84.25,3.86.74s1.78,1.17,2.29,2.02c.5.85.75,1.81.75,2.85,0,1.13-.25,2.09-.74,2.84-.49.75-1.13,1.33-1.92,1.73-.78.4-1.63.64-2.5.73l.44-.31c.94.02,1.82.27,2.61.75s1.44,1.13,1.91,1.95c.47.82.71,1.74.71,2.75,0,1.11-.27,2.13-.82,3.04-.55.92-1.35,1.64-2.41,2.18s-2.37.81-3.92.81h-8.01.01ZM157.3,236.56h4.91c1.42,0,2.51-.34,3.26-1.01.75-.67,1.12-1.58,1.12-2.75s-.37-2.01-1.12-2.68-1.86-1.01-3.35-1.01h-4.82v7.43h0ZM157.3,246.76h5.08c1.49,0,2.66-.35,3.49-1.05s1.24-1.68,1.24-2.95-.43-2.23-1.28-2.98-2.02-1.12-3.51-1.12h-5.01v8.1h-.01Z"/>
    <path class="cls-1" d="M184.47,248.97v-8.39l-7.19-13.68h2.99l5.92,11.94h-.78l5.9-11.94h2.96l-7.15,13.68v8.39h-2.65Z"/>
    <path class="cls-1" d="M218.28,248.97v-22.06h6.49c2.58,0,4.72.45,6.4,1.33,1.68.9,2.93,2.16,3.73,3.81.81,1.65,1.21,3.63,1.21,5.94s-.4,4.23-1.21,5.86c-.81,1.64-2.05,2.9-3.73,3.78s-3.81,1.32-6.4,1.32h-6.49ZM220.93,246.76h3.78c2.14,0,3.85-.35,5.12-1.05,1.27-.71,2.18-1.72,2.72-3.03s.82-2.87.82-4.68-.27-3.43-.82-4.75c-.55-1.32-1.46-2.34-2.72-3.06-1.27-.72-2.98-1.08-5.12-1.08h-3.78v17.65Z"/>
    <path class="cls-1" d="M246.27,248.97v-22.06h13.65v2.18h-11v7.69h10.06v2.14h-10.06v7.88h11v2.18h-13.65Z"/>
    <path class="cls-1" d="M268.96,248.97l8.13-22.06h2.8l8.1,22.06h-2.8l-6.72-18.75-6.74,18.75h-2.77ZM272.69,243.3l.75-2.14h9.99l.75,2.14h-11.5.01Z"/>
    <path class="cls-1" d="M297.61,248.97v-22.06h2.65v19.95h10.27v2.11h-12.92,0Z"/>
    <path class="cls-1" d="M322.85,248.97l-6.06-22.06h2.84l4.75,18.91,5.39-18.91h2.96l5.26,18.97,4.82-18.97h2.84l-6.18,22.06h-3.03l-5.26-18.24-5.39,18.24h-2.96.01Z"/>
    <path class="cls-1" d="M355.13,248.97v-22.06h2.65v22.06h-2.65Z"/>
    <path class="cls-1" d="M375.84,249.35c-1.61,0-3.03-.29-4.23-.89-1.2-.58-2.12-1.41-2.77-2.46-.65-1.05-.98-2.27-.98-3.66h2.77c0,.86.2,1.66.59,2.38.4.73.99,1.3,1.75,1.74.76.43,1.72.65,2.85.65.99,0,1.83-.16,2.53-.49.71-.33,1.24-.77,1.6-1.33.37-.57.55-1.21.55-1.92,0-.86-.18-1.56-.55-2.1s-.86-.98-1.5-1.31c-.63-.34-1.36-.64-2.19-.9s-1.69-.55-2.6-.86c-1.75-.58-3.03-1.32-3.85-2.19-.82-.87-1.23-2.01-1.23-3.42,0-1.2.28-2.24.84-3.15s1.36-1.61,2.4-2.13c1.04-.52,2.28-.77,3.7-.77s2.64.26,3.67.78c1.04.53,1.85,1.24,2.44,2.16.58.91.89,1.97.89,3.16h-2.77c0-.61-.16-1.21-.47-1.79s-.8-1.08-1.44-1.47-1.45-.58-2.41-.58c-.8-.02-1.5.11-2.13.39-.62.28-1.1.68-1.45,1.21-.35.53-.52,1.17-.52,1.92s.16,1.29.46,1.73c.3.44.75.82,1.32,1.12.58.3,1.26.58,2.03.84s1.64.54,2.58.85c1.08.36,2.02.8,2.85,1.31.83.52,1.48,1.17,1.95,1.97.47.8.71,1.82.71,3.06,0,1.05-.28,2.04-.84,2.98-.56.93-1.38,1.69-2.48,2.29-1.09.58-2.47.89-4.13.89l.03-.02Z"/>
    <path class="cls-1" d="M393.39,248.97v-22.06h13.65v2.18h-11v7.69h10.06v2.14h-10.06v7.88h11v2.18h-13.65Z"/>
  </g>
  <g>
    <g>
      <path class="cls-1" d="M29.35,202.27v-47.62h12.57l1.32,8.69c1.26-2.02,2.74-3.75,4.44-5.2,1.7-1.45,3.67-2.58,5.91-3.4s4.64-1.23,7.23-1.23v15.02h-4.72c-1.89,0-3.61.21-5.15.61-1.54.41-2.87,1.09-3.97,2.03-1.1.95-1.95,2.22-2.55,3.83-.6,1.61-.9,3.61-.9,6v21.26h-14.18Z"/>
      <path class="cls-1" d="M92,203.41c-4.91,0-9.23-1.02-12.95-3.07-3.72-2.05-6.63-4.91-8.74-8.6-2.11-3.69-3.16-7.92-3.16-12.71s1.04-9.29,3.12-13.13c2.08-3.84,4.98-6.87,8.69-9.07,3.72-2.2,8.03-3.31,12.95-3.31s8.98,1.04,12.57,3.12c3.59,2.08,6.41,4.9,8.46,8.46,2.05,3.56,3.07,7.67,3.07,12.33,0,.63-.02,1.34-.05,2.13-.03.79-.11,1.59-.24,2.41h-38.46v-8.22h24.29c-.13-2.65-1.09-4.77-2.88-6.38-1.79-1.61-4.02-2.41-6.66-2.41-2.02,0-3.84.47-5.48,1.42-1.64.95-2.94,2.36-3.92,4.25s-1.47,4.28-1.47,7.18v2.83c0,2.21.43,4.16,1.28,5.86.85,1.7,2.08,3.02,3.69,3.97,1.61.94,3.51,1.42,5.72,1.42,2.08,0,3.79-.43,5.15-1.28,1.35-.85,2.41-1.94,3.17-3.26h14.46c-.88,3.02-2.4,5.75-4.53,8.17-2.14,2.43-4.76,4.35-7.84,5.76-3.09,1.42-6.49,2.13-10.21,2.13h-.03Z"/>
      <path class="cls-1" d="M136.98,202.27l-17.29-47.62h14.93l11.06,34.3,11.06-34.3h14.74l-17.2,47.62h-17.3Z"/>
      <path class="cls-1" d="M200.29,203.41c-4.91,0-9.23-1.02-12.95-3.07-3.72-2.05-6.63-4.91-8.74-8.6s-3.16-7.92-3.16-12.71,1.04-9.29,3.12-13.13,4.98-6.87,8.69-9.07c3.72-2.2,8.03-3.31,12.95-3.31s8.98,1.04,12.57,3.12c3.59,2.08,6.41,4.9,8.46,8.46,2.05,3.56,3.07,7.67,3.07,12.33,0,.63-.02,1.34-.05,2.13-.03.79-.11,1.59-.24,2.41h-38.46v-8.22h24.29c-.13-2.65-1.09-4.77-2.88-6.38-1.79-1.61-4.02-2.41-6.66-2.41-2.02,0-3.84.47-5.48,1.42-1.64.95-2.94,2.36-3.92,4.25s-1.47,4.28-1.47,7.18v2.83c0,2.21.43,4.16,1.28,5.86.85,1.7,2.08,3.02,3.69,3.97,1.61.94,3.51,1.42,5.72,1.42,2.08,0,3.79-.43,5.15-1.28,1.35-.85,2.41-1.94,3.17-3.26h14.46c-.88,3.02-2.4,5.75-4.53,8.17-2.14,2.43-4.76,4.35-7.84,5.76-3.09,1.42-6.49,2.13-10.21,2.13h-.03Z"/>
      <path class="cls-1" d="M234.68,202.27v-47.62h12.38l1.13,7.65c1.45-2.65,3.5-4.77,6.14-6.38,2.65-1.61,5.86-2.41,9.64-2.41,3.97,0,7.31.85,10.02,2.55s4.77,4.14,6.19,7.32,2.13,7.07,2.13,11.67v27.21h-14.08v-25.89c0-3.46-.74-6.16-2.22-8.08-1.48-1.92-3.83-2.88-7.04-2.88-1.89,0-3.61.46-5.15,1.37-1.55.91-2.76,2.22-3.64,3.92s-1.32,3.75-1.32,6.14v25.42h-14.18Z"/>
      <path class="cls-1" d="M312.07,203.41c-3.97,0-7.32-.82-10.06-2.46-2.74-1.64-4.82-4.05-6.24-7.23-1.42-3.18-2.13-7.07-2.13-11.67v-27.4h14.17v25.99c0,3.53.72,6.22,2.17,8.08,1.45,1.86,3.78,2.79,6.99,2.79,1.95,0,3.7-.44,5.24-1.32s2.74-2.17,3.59-3.87c.85-1.7,1.28-3.78,1.28-6.24v-25.42h14.17v47.62h-12.38l-1.13-7.56c-1.39,2.58-3.4,4.68-6.05,6.28-2.65,1.61-5.86,2.41-9.64,2.41h.02Z"/>
      <path class="cls-1" d="M376.99,203.41c-4.91,0-9.23-1.02-12.95-3.07-3.72-2.05-6.63-4.91-8.74-8.6-2.11-3.69-3.16-7.92-3.16-12.71s1.04-9.29,3.12-13.13c2.08-3.84,4.98-6.87,8.69-9.07,3.72-2.2,8.03-3.31,12.95-3.31s8.98,1.04,12.57,3.12c3.59,2.08,6.41,4.9,8.46,8.46,2.05,3.56,3.07,7.67,3.07,12.33,0,.63-.02,1.34-.05,2.13s-.11,1.59-.24,2.41h-38.46v-8.22h24.29c-.13-2.65-1.09-4.77-2.88-6.38s-4.01-2.41-6.66-2.41c-2.02,0-3.84.47-5.48,1.42s-2.94,2.36-3.92,4.25c-.98,1.89-1.47,4.28-1.47,7.18v2.83c0,2.21.43,4.16,1.28,5.86.85,1.7,2.08,3.02,3.69,3.97,1.61.94,3.51,1.42,5.72,1.42,2.08,0,3.8-.43,5.15-1.28,1.35-.85,2.41-1.94,3.16-3.26h14.46c-.88,3.02-2.4,5.75-4.54,8.17-2.14,2.43-4.76,4.35-7.84,5.76-3.09,1.42-6.49,2.13-10.21,2.13h0Z"/>
    </g>
    <g>
      <path class="cls-1" d="M411.85,202.27v-62.03h7.94v62.03h-7.94Z"/>
      <path class="cls-1" d="M448.42,203.41c-3.84,0-7.06-.68-9.64-2.03-2.58-1.35-4.5-3.15-5.76-5.39-1.26-2.24-1.89-4.68-1.89-7.32,0-3.21.83-5.94,2.5-8.17,1.67-2.24,4.03-3.94,7.09-5.1,3.06-1.17,6.66-1.75,10.82-1.75h12.57c0-2.96-.46-5.43-1.37-7.42-.91-1.98-2.24-3.48-3.97-4.49s-3.89-1.51-6.47-1.51c-3.02,0-5.64.76-7.84,2.27-2.21,1.51-3.56,3.75-4.06,6.71h-8.13c.38-3.4,1.53-6.25,3.45-8.55,1.92-2.3,4.36-4.06,7.32-5.29s6.05-1.84,9.26-1.84c4.41,0,8.08.8,11.01,2.41,2.93,1.61,5.12,3.84,6.57,6.71,1.45,2.87,2.17,6.25,2.17,10.16v29.48h-7.09l-.47-8.41c-.63,1.32-1.43,2.57-2.41,3.73-.98,1.17-2.11,2.17-3.4,3.02-1.29.85-2.79,1.53-4.49,2.03s-3.62.76-5.76.76h0ZM449.65,196.7c2.2,0,4.2-.46,6-1.37s3.32-2.17,4.58-3.78c1.26-1.61,2.22-3.39,2.88-5.34.66-1.95.99-4,.99-6.14v-.28h-11.91c-3.09,0-5.58.36-7.46,1.09-1.89.72-3.24,1.73-4.06,3.02-.82,1.29-1.23,2.76-1.23,4.39s.39,3.18,1.18,4.44,1.95,2.24,3.5,2.93c1.54.69,3.39,1.04,5.53,1.04h0Z"/>
      <path class="cls-1" d="M509.27,203.41c-2.71,0-5.15-.39-7.32-1.18-2.17-.79-4.08-1.84-5.72-3.17-1.64-1.32-2.99-2.87-4.06-4.63l-.66,7.84h-7.18v-62.03h7.94v22.25c1.51-2.46,3.68-4.57,6.52-6.33,2.83-1.76,6.33-2.65,10.49-2.65,4.66,0,8.71,1.09,12.14,3.26,3.43,2.17,6.11,5.14,8.03,8.88,1.92,3.75,2.88,8.02,2.88,12.8s-.96,9.07-2.88,12.85c-1.92,3.78-4.62,6.74-8.08,8.88-3.47,2.14-7.5,3.21-12.09,3.21v.02ZM508.33,196.51c3.15,0,5.92-.76,8.31-2.27,2.39-1.51,4.27-3.61,5.62-6.28,1.35-2.68,2.03-5.84,2.03-9.5s-.68-6.74-2.03-9.45c-1.36-2.71-3.23-4.82-5.62-6.33-2.39-1.51-5.17-2.27-8.31-2.27s-5.92.76-8.31,2.27c-2.4,1.51-4.25,3.62-5.58,6.33-1.32,2.71-1.98,5.86-1.98,9.45s.66,6.82,1.98,9.5c1.32,2.68,3.18,4.77,5.58,6.28,2.39,1.51,5.16,2.27,8.31,2.27Z"/>
    </g>
  </g>
  <g>
    <g>
      <path class="cls-1" d="M251.27,57.47c.63.26,1.33-.05,1.58-.68.92-2.3,2.66-4.19,4.93-5.29l.07-.03-2.71-3.79c-.38-.53-1.1-.66-1.65-.31-2.69,1.76-4.75,4.28-5.94,7.25-.25.61.04,1.31.65,1.57l3.07,1.28Z"/>
      <path class="cls-1" d="M247.74,78.55l.04-.18-4.67-.24c-.64-.03-1.2.45-1.26,1.09-.33,3.24.35,6.47,1.95,9.3.33.57,1.05.78,1.63.47l2.92-1.6c.6-.33.79-1.07.45-1.66-1.23-2.16-1.63-4.69-1.06-7.16Z"/>
      <path class="cls-1" d="M310.41,57.47l3.07-1.28c.61-.25.9-.95.65-1.57-1.2-2.97-3.26-5.49-5.94-7.25-.54-.35-1.27-.22-1.65.31l-2.71,3.79.07.03c2.28,1.1,4.01,2.98,4.93,5.29.25.63.96.94,1.58.68Z"/>
      <path class="cls-1" d="M299.11,103.18l-.06.07c-1.62,2.03-3.91,3.32-6.43,3.67-.68.09-1.15.72-1.04,1.39l.57,3.27c.11.64.72,1.08,1.37.99,3.25-.47,6.26-1.94,8.62-4.23.47-.45.5-1.19.07-1.67l-3.1-3.49Z"/>
      <path class="cls-1" d="M313.94,78.55c.56,2.47.17,5-1.06,7.16-.34.59-.14,1.34.45,1.66l2.92,1.6c.58.32,1.31.11,1.63-.47,1.6-2.82,2.28-6.06,1.95-9.3-.07-.64-.62-1.12-1.26-1.09l-4.67.24.04.18Z"/>
      <path class="cls-1" d="M270.09,108.32c.12-.68-.36-1.3-1.04-1.39-2.52-.35-4.82-1.64-6.43-3.67l-.06-.07-3.1,3.49c-.43.48-.4,1.22.07,1.67,2.37,2.29,5.37,3.76,8.62,4.23.65.09,1.26-.34,1.37-.99l.57-3.27Z"/>
      <path class="cls-1" d="M276.28,41.17c.19.66.89,1.01,1.54.8.98-.31,2-.47,3.01-.47s2.03.16,3.01.47c.65.21,1.35-.14,1.54-.8l.91-3.2c.18-.64-.19-1.29-.82-1.49-3.03-.94-6.25-.94-9.28,0-.63.2-1,.85-.82,1.49l.91,3.2Z"/>
    </g>
    <g>
      <g id="_Radial_Repeat_" data-name="&amp;lt;Radial Repeat&amp;gt;">
        <path class="cls-1" d="M276.35,90.62h8.98c.9,0,1.67.65,1.83,1.54l4.65,26.79c.2,1.14-.68,2.17-1.83,2.17h-18.29c-1.15,0-2.03-1.04-1.83-2.17l4.65-26.79c.15-.89.93-1.54,1.83-1.54Z"/>
      </g>
      <g id="_Radial_Repeat_-2" data-name="&amp;lt;Radial Repeat&amp;gt;">
        <path class="cls-1" d="M265.96,81.3l5.6,7.02c.56.71.54,1.71-.06,2.39l-18.05,20.34c-.76.86-2.12.83-2.84-.07l-11.4-14.3c-.72-.9-.45-2.23.56-2.79l23.85-13.07c.79-.43,1.78-.24,2.34.47Z"/>
      </g>
      <g id="_Radial_Repeat_-3" data-name="&amp;lt;Radial Repeat&amp;gt;">
        <path class="cls-1" d="M266.78,67.36l-2,8.76c-.2.88-1.01,1.49-1.91,1.44l-27.16-1.42c-1.15-.06-1.97-1.14-1.71-2.27l4.07-17.83c.26-1.12,1.46-1.74,2.53-1.3l25.09,10.5c.83.35,1.29,1.25,1.09,2.13Z"/>
      </g>
      <g id="_Radial_Repeat_-4" data-name="&amp;lt;Radial Repeat&amp;gt;">
        <path class="cls-1" d="M278.18,59.31l-8.09,3.9c-.81.39-1.79.14-2.32-.59l-15.82-22.12c-.67-.94-.33-2.25.7-2.75l16.48-7.94c1.04-.5,2.28.06,2.59,1.17l7.43,26.16c.25.87-.17,1.79-.98,2.18Z"/>
      </g>
      <g id="_Radial_Repeat_-5" data-name="&amp;lt;Radial Repeat&amp;gt;">
        <path class="cls-1" d="M291.59,63.21l-8.09-3.9c-.81-.39-1.23-1.31-.98-2.18l7.43-26.16c.31-1.11,1.55-1.67,2.59-1.17l16.48,7.94c1.04.5,1.37,1.82.7,2.75l-15.82,22.12c-.53.73-1.5.98-2.32.59Z"/>
      </g>
      <g id="_Radial_Repeat_-6" data-name="&amp;lt;Radial Repeat&amp;gt;">
        <path class="cls-1" d="M296.9,76.12l-2-8.76c-.2-.88.26-1.78,1.09-2.13l25.09-10.5c1.06-.44,2.27.18,2.53,1.3l4.07,17.83c.26,1.12-.56,2.21-1.71,2.27l-27.16,1.42c-.9.05-1.71-.56-1.91-1.44Z"/>
      </g>
      <g id="_Radial_Repeat_-7" data-name="&amp;lt;Radial Repeat&amp;gt;">
        <path class="cls-1" d="M290.11,88.32l5.6-7.02c.56-.71,1.55-.9,2.34-.47l23.85,13.07c1.01.55,1.28,1.88.56,2.79l-11.4,14.3c-.72.9-2.08.94-2.84.07l-18.05-20.34c-.6-.68-.63-1.68-.06-2.39Z"/>
      </g>
    </g>
  </g>
</svg>