<?xml version="1.0" encoding="UTF-8"?>
<svg id="Layer_1" data-name="Layer 1" xmlns="http://www.w3.org/2000/svg" xmlns:xlink="http://www.w3.org/1999/xlink" viewBox="0 0 957.09 921.24">
  <defs>
    <style>
      .cls-1 {
        fill: url(#radial-gradient-7);
      }

      .cls-2 {
        fill: url(#radial-gradient-6);
      }

      .cls-3 {
        fill: url(#radial-gradient-5);
      }

      .cls-4 {
        fill: url(#radial-gradient-4);
      }

      .cls-5 {
        fill: url(#radial-gradient-9);
      }

      .cls-6 {
        fill: url(#radial-gradient-8);
      }

      .cls-7 {
        fill: url(#radial-gradient-3);
      }

      .cls-8 {
        fill: url(#radial-gradient-2);
      }

      .cls-9 {
        fill: url(#radial-gradient);
      }

      .cls-10 {
        fill: url(#radial-gradient-10);
      }
    </style>
    <radialGradient id="radial-gradient" cx="620.83" cy="632.23" fx="620.83" fy="632.23" r="443.77" gradientUnits="userSpaceOnUse">
      <stop offset=".14" stop-color="#808fef"/>
      <stop offset="1" stop-color="#293473"/>
    </radialGradient>
    <radialGradient id="radial-gradient-2" cx="292.69" cy="645.41" fx="292.69" fy="645.41" r="397.73" xlink:href="#radial-gradient"/>
    <radialGradient id="radial-gradient-3" cx="493.45" cy="334.18" fx="493.45" fy="334.18" r="351.77" xlink:href="#radial-gradient"/>
    <radialGradient id="radial-gradient-4" cx="478.15" cy="453.44" fx="478.15" fy="453.44" r="305.87" xlink:href="#radial-gradient"/>
    <radialGradient id="radial-gradient-5" cx="309.03" cy="282.05" fx="309.03" fy="282.05" r="260.02" xlink:href="#radial-gradient"/>
    <radialGradient id="radial-gradient-6" cx="348.62" cy="476.66" fx="348.62" fy="476.66" r="214.29" xlink:href="#radial-gradient"/>
    <radialGradient id="radial-gradient-7" cx="501.62" cy="492.29" fx="501.62" fy="492.29" r="168.65" xlink:href="#radial-gradient"/>
    <radialGradient id="radial-gradient-8" cx="495.18" cy="377.73" fx="495.18" fy="377.73" r="123.14" xlink:href="#radial-gradient"/>
    <radialGradient id="radial-gradient-9" cx="489.52" cy="421.21" fx="489.52" fy="421.21" r="77.8" xlink:href="#radial-gradient"/>
    <radialGradient id="radial-gradient-10" cx="478.55" cy="441.31" fx="478.55" fy="441.31" r="32.89" xlink:href="#radial-gradient"/>
  </defs>
  <path class="cls-9" d="M478.55,899.47c-8.61,0-17.21-1.93-25.23-5.79l-313.13-150.8c-16.04-7.72-27.5-22.1-31.46-39.46L31.38,364.59c-3.96-17.35.13-35.28,11.23-49.2L259.3,43.66c11.1-13.92,27.67-21.9,45.47-21.9h347.55c17.8,0,34.37,7.98,45.47,21.9l216.7,271.73c11.1,13.92,15.19,31.85,11.23,49.2l-77.34,338.84c-3.96,17.35-15.43,31.73-31.46,39.46l-313.13,150.8c-8.02,3.86-16.62,5.79-25.23,5.79ZM304.77,31.77c-14.74,0-28.46,6.61-37.65,18.13L50.43,321.63c-9.19,11.52-12.58,26.37-9.3,40.74l77.34,338.84c3.28,14.37,12.78,26.28,26.05,32.67l313.13,150.8c13.28,6.39,28.51,6.39,41.79,0l313.13-150.8c13.28-6.39,22.77-18.3,26.05-32.67l77.34-338.84c3.28-14.37-.11-29.22-9.3-40.74L689.97,49.9c-9.19-11.52-22.91-18.13-37.65-18.13h-347.55Z"/>
  <path class="cls-8" d="M479.22,851.52c-8.81,0-17.92-1.93-25.86-5.76-.06-.03-69.7-33.58-139.32-67.14-34.81-16.78-69.62-33.56-95.73-46.16-13.06-6.3-23.94-11.55-31.55-15.23-3.81-1.84-6.81-3.29-8.85-4.28-1.35-.65-2.35-1.14-3.1-1.56l-.02.04c-13.44-6.47-24.96-21.7-28.65-37.88-.03-.11-17.02-74.64-34.37-150.79-8.59-37.68-17.17-75.36-23.6-103.63-3.22-14.13-5.89-25.91-7.77-34.16-.94-4.13-1.67-7.37-2.17-9.59-.33-1.46-.57-2.55-.72-3.4h-.04c-3.32-14.54,1.4-33.03,11.75-46.01.04-.05,47.7-59.79,96.46-120.89,24.11-30.21,48.21-60.41,66.3-83.06,9.05-11.33,16.59-20.76,21.87-27.37,2.64-3.31,4.72-5.9,6.14-7.67.94-1.17,1.63-2.04,2.21-2.68l-.03-.02c9.3-11.67,26.71-19.5,43.31-19.5.07,0,77.36.02,154.66.04,38.65.01,77.29.03,106.28.05,14.5.01,26.58.02,35.04.03,4.23,0,7.56.01,9.83.02,1.5,0,2.61,0,3.47.06v-.04c14.92,0,31.9,8.72,42.25,21.7.06.07,48.43,60.76,96.39,120.94,24.08,30.22,48.17,60.45,66.22,83.12,9.03,11.34,16.55,20.79,21.82,27.41,2.63,3.31,4.7,5.92,6.11,7.69.93,1.18,1.62,2.05,2.12,2.75l.03-.02c9.3,11.67,13.07,30.38,9.38,46.56l-.32,1.42c-2.55,11.16-19.68,86.16-36.2,158.38-8.26,36.11-16.36,71.52-22.4,97.92-3.02,13.2-5.53,24.14-7.29,31.78-.88,3.82-1.57,6.82-2.04,8.87-.31,1.33-.54,2.33-.77,3.11h.04c-3.32,14.56-15.6,29.17-30.56,36.37-.86.41-70.51,33.94-139.96,67.35-34.73,16.71-69.4,33.39-95.4,45.89-13,6.25-23.83,11.46-31.42,15.1-3.8,1.82-6.78,3.25-8.81,4.23-1.34.64-2.34,1.12-3.14,1.45l.02.04c-6.3,3.04-13.84,4.54-21.62,4.54ZM180.71,704.19c24.22,11.76,273.98,132.11,276.6,133.37,12.59,6.07,28.5,6.55,39.58,1.22l1.98-.95h.02c19.63-9.36,186.63-89.73,276.71-133.09,12.6-6.07,22.9-18.2,25.63-30.19l.51-2.15c4.44-19.15,38.74-169.2,68.15-297.91l.33-1.43c3.11-13.62.05-29.23-7.62-38.85l-1.37-1.72v-.02c-16.75-21.16-189.53-237.9-191.33-240.16-8.71-10.93-22.83-18.27-35.13-18.27l-2.2-.02c-26.95-.09-304.16-.15-307.07-.15-13.98,0-28.52,6.46-36.18,16.07l-1.39,1.72c-16.88,21.02-189.77,237.73-191.57,239.98-8.71,10.93-12.73,26.32-9.99,38.31l.49,2.14v.02c5.9,26.31,67.53,296.58,68.17,299.4,3.11,13.63,12.64,26.37,23.72,31.7l1.98.97Z"/>
  <path class="cls-7" d="M480.37,803.75c-9.65,0-19.71-2.41-26.97-5.91l-2.19-1.06c-12.13-5.85-72.58-34.99-129.99-62.71-28.71-13.86-56.66-27.35-77.44-37.4-10.39-5.03-18.99-9.19-24.99-12.1-3-1.46-5.36-2.61-6.96-3.39-1.02-.5-1.81-.89-2.42-1.23v.02c-12.82-6.17-22.88-23.31-25.85-36.31-.03-.13-15.07-66.15-30.08-132.16-7.5-33.01-15-66.01-20.61-90.78-2.81-12.38-5.14-22.71-6.77-29.94-.81-3.62-1.45-6.47-1.88-8.42-.28-1.27-.49-2.23-.62-2.98h-.02c-3.16-13.86,3.96-32.41,12.28-42.84l.32-.4c4.04-5.06,46.2-57.88,87.38-109.43,20.59-25.78,40.94-51.24,56.16-70.26,7.61-9.51,13.94-17.41,18.37-22.93,2.22-2.76,3.96-4.93,5.16-6.41.77-.95,1.36-1.68,1.85-2.23l-.02-.02c8.86-11.12,27.82-17.11,41.15-17.11.13,0,67.84.03,135.54.08,33.85.03,67.69.06,93.09.1,12.7.02,23.28.04,30.7.06,3.71.01,6.63.02,8.62.04,1.3,0,2.28.01,3.04.06v-.03c14.22,0,30.72,11.08,39.04,21.5.08.1,42.27,53.06,84.44,106.02,21.08,26.48,42.16,52.96,57.96,72.84,7.9,9.94,14.49,18.23,19.09,24.04,2.31,2.91,4.12,5.2,5.35,6.77.81,1.02,1.41,1.79,1.85,2.42l.02-.02c8.87,11.12,10.5,30.93,7.53,43.93-.05.23-15.03,65.73-30.24,132.12-7.56,32.99-15.12,65.98-20.81,90.73-2.85,12.38-5.22,22.69-6.89,29.92-.84,3.62-1.5,6.46-1.95,8.4-.3,1.27-.52,2.22-.74,2.95h.02c-3.16,13.87-17.64,27.49-29.65,33.28-.12.06-61.13,29.41-122.15,58.73-30.51,14.66-61.02,29.32-83.91,40.3-11.45,5.49-21,10.07-27.69,13.26-3.35,1.6-5.98,2.86-7.79,3.71-1.18.56-2.06.98-2.77,1.26v.02c-5.06,2.44-11.2,3.47-17.51,3.47ZM214.74,673.46c15.11,7.42,131.59,63.63,240.03,115.92l2.2,1.06c10.41,5.01,27.24,7.3,37.35,2.43l1.78-.86.04.02c21.37-10.09,240.19-115.35,242.48-116.45,10.43-5.02,22.7-16.75,25.2-27.69l.48-1.95c5.44-23,59.58-259.71,60.14-262.18,2.58-11.28,1.06-28.2-5.94-36.97l-1.23-1.55v-.04c-13.99-17.84-154.1-193.71-167.47-210.48-7.21-9.05-21.38-18.41-32.61-18.41l-2.01-.03c-22.96-.17-253.1-.29-268.98-.29-11.57,0-27.72,5.24-34.72,14.02l-1.27,1.55c-11.75,14.5-109.22,136.55-167.62,209.73l-.32.4c-7.21,9.04-13.18,24.94-10.69,35.88l.44,1.93-.02.03c5.08,23.08,59.01,259.83,59.57,262.31,2.58,11.28,11.28,25.86,21.39,30.73l1.79.9Z"/>
  <path class="cls-4" d="M481.46,756.1c-9.99,0-21.18-2.88-28.02-6.18-.21-.1-52.61-25.39-104.83-50.63-26.16-12.64-52.3-25.29-71.92-34.8-9.81-4.76-17.99-8.73-23.71-11.53-2.87-1.4-5.12-2.51-6.67-3.27-.99-.49-1.75-.86-2.32-1.19h0c-11.07-5.32-20.49-23.59-23.03-34.73-.05-.21-13.02-57.24-25.78-113.52-6.42-28.33-12.84-56.66-17.63-77.93-2.4-10.64-4.39-19.51-5.77-25.73-.69-3.12-1.24-5.57-1.6-7.25-.23-1.08-.41-1.9-.52-2.56h-.01c-2.73-11.98,5.68-30.73,12.8-39.66.11-.13,35.97-45.03,72.68-90.94,18.15-22.69,36.29-45.36,49.93-62.37,6.82-8.51,12.51-15.59,16.51-20.55,2-2.49,3.58-4.44,4.67-5.77.7-.86,1.23-1.51,1.68-2h0c7.66-9.61,27.57-14.73,38.99-14.73.27,0,59.1.05,116.41.13,29.05.04,58.1.09,79.9.15,10.9.03,19.99.06,26.36.1,3.19.02,5.71.03,7.42.05,1.11.01,1.95.02,2.61.07h0c12.29-.01,28.7,12.36,35.82,21.29.8,1,37,46.46,72.99,91.73,18,22.63,35.94,45.22,49.38,62.16,6.72,8.48,12.32,15.54,16.23,20.51,1.96,2.49,3.5,4.44,4.55,5.79.67.86,1.18,1.52,1.56,2.06h.01c7.66,9.6,8.22,30.14,5.68,41.28-.04.19-13.02,56.84-26.03,113.47-6.5,28.31-13.02,56.62-17.93,77.86-2.46,10.62-4.51,19.48-5.96,25.68-.73,3.11-1.3,5.55-1.7,7.23-.26,1.08-.45,1.89-.65,2.53h.01c-2.73,11.98-18.45,25.23-28.74,30.19-.28.14-52.16,25.07-104.94,50.4-26.19,12.57-52.38,25.12-72.05,34.53-9.84,4.7-18.04,8.62-23.8,11.35-2.88,1.37-5.16,2.44-6.71,3.17-1,.47-1.76.83-2.38,1.07h0c-3.71,1.8-8.45,2.53-13.49,2.53ZM248.77,642.73c18.24,9.08,205.9,99.64,207.85,100.58,8.92,4.3,26.62,7.76,35.15,3.65l1.59-.77.06.03c18.47-8.59,206.27-98.85,208.23-99.79,8.92-4.3,22.67-15.97,24.77-25.21l.45-1.75c4.48-18.49,45.45-197.24,51.81-225.02,2.2-9.65,1.65-27.67-4.26-35.08l-1.1-1.38v-.06c-10.06-12.98-96.95-122.2-143.6-180.79-6.19-7.76-20.62-18.56-30.1-18.56l-1.81-.05c-19.9-.26-219.31-.43-230.9-.44-9.9,0-27.35,4.55-33.26,11.96l-1.16,1.38c-12.92,15.76-142.97,178.57-144.31,180.26-6.18,7.74-13.49,24.22-11.39,33.46l.39,1.72-.04.05c4.27,19.93,50.48,223.11,50.96,225.21,2.2,9.66,10.52,25.65,19.06,29.76l1.6.83Z"/>
  <path class="cls-3" d="M482.38,708.59c-10.04,0-22.72-3.61-28.9-6.59-.19-.09-43.47-21-87.59-42.37-25.33-12.27-45.52-22.07-60.01-29.12-8.19-3.99-15.01-7.32-19.79-9.67-4.05-1.99-6.25-3.08-7.48-3.82l-.02.04c-9.33-4.49-18.12-23.98-20.22-33.17-.05-.23-10.76-47.39-21.48-94.89-6.2-27.46-11.13-49.35-14.65-65.08-1.99-8.89-3.64-16.3-4.78-21.51-.97-4.4-1.49-6.8-1.68-8.23h-.05c-2.3-10.08,7.45-29.11,13.32-36.48.16-.2,30.45-38.08,60.8-75.96,17.6-21.97,31.65-39.47,41.75-52.02,5.71-7.09,10.48-13.01,13.84-17.14,2.84-3.5,4.39-5.41,5.39-6.45l-.04-.03c6.46-8.1,27.41-12.33,36.83-12.33.23,0,48.24.06,97.29.17,28.15.06,50.59.13,66.7.2,9.11.04,16.7.08,22.03.13,4.51.04,6.97.06,8.4.19v-.05c10.35,0,26.73,13.74,32.61,21.11.17.21,30.34,38.14,60.53,76.17,17.5,22.05,31.44,39.64,41.43,52.28,5.65,7.14,10.35,13.11,13.64,17.3,2.78,3.55,4.3,5.48,5.09,6.69l.04-.03c6.46,8.1,5.92,29.47,3.83,38.65-.05.22-10.98,47.85-21.82,94.82-6.33,27.43-11.39,49.29-15.04,64.99-2.07,8.87-3.8,16.26-5.03,21.45-1.04,4.39-1.61,6.78-2.06,8.15h.05c-2.3,10.11-19.35,23.01-27.84,27.1-.22.11-43.75,21-87.73,42.06-25.39,12.15-45.64,21.83-60.19,28.76-8.22,3.92-15.08,7.17-19.9,9.44-4.08,1.92-6.3,2.97-7.65,3.47l.02.04c-2.53,1.22-5.9,1.72-9.63,1.72ZM282.79,612.01c15.3,7.77,171.86,83.41,173.48,84.19,8.47,4.08,26.43,8.01,32.94,4.87l1.4-.67.08.04c15.24-6.96,165.3-78.96,173.98-83.14,8.47-4.08,22.74-15.67,24.35-22.72l.35-1.51.08-.04c4.08-16.29,41.5-179.2,43.47-187.86,2.09-9.16,1.93-27.55-2.58-33.2l-.97-1.21.02-.08c-10.13-13.26-113.02-142.64-119.77-151.12-5.86-7.35-20.34-18.68-27.57-18.68h-1.55l-.05-.07c-16.77-.35-183.94-.58-192.83-.58-9.4,0-27.29,4.25-31.79,9.91l-.97,1.21h-.08c-10.71,12.88-114.67,142.86-120.68,150.39-5.86,7.35-13.69,23.99-12.08,31.03l.35,1.51-.05.07c3.39,16.44,40.29,179.1,42.34,188.12,2.09,9.16,10.22,25.66,16.73,28.79l1.4.67.02.08Z"/>
  <path class="cls-2" d="M482.69,661.29c-9.85,0-24.55-4.98-29.18-7.21-.16-.07-35.25-17.06-70.34-34.11-20.3-9.87-36.49-17.75-48.1-23.45-6.56-3.22-12.04-5.91-15.87-7.82-3.22-1.6-5-2.49-6.01-3.1h0c-8.01-3.85-15.97-25.3-17.41-31.59-.04-.17-8.6-38.01-17.19-76.26-4.94-22.02-8.87-39.59-11.66-52.23-1.58-7.14-2.88-13.1-3.78-17.29-.75-3.52-1.17-5.46-1.32-6.64h0c-1.98-8.66,9.83-28.26,13.85-33.31.11-.14,24.09-30.09,48.91-60.99,14.14-17.6,25.43-31.62,33.56-41.68,4.6-5.68,8.44-10.42,11.16-13.74,2.28-2.78,3.54-4.32,4.36-5.17h0c5.54-6.95,28.23-9.95,34.67-9.95.18,0,38.84.07,78.18.21,22.57.08,40.58.17,53.51.25,7.31.05,13.41.1,17.7.16,3.6.05,5.58.07,6.76.19h0c8.89,0,25.37,15.86,29.39,20.9.1.13,24.06,30.28,48.57,61.25,14.01,17.7,25.17,31.83,33.17,42,4.52,5.75,8.28,10.55,10.91,13.94,2.21,2.84,3.42,4.41,4.07,5.4h0c5.54,6.94,3.41,29.73,1.98,36.01-.04.19-8.72,37.89-17.6,76.17-5.1,21.99-9.19,39.52-12.15,52.11-1.68,7.12-3.09,13.05-4.09,17.22-.85,3.5-1.32,5.43-1.69,6.55h0c-1.98,8.67-21.12,21.21-26.93,24-.15.07-35.54,17.03-70.53,33.73-20.37,9.72-36.63,17.46-48.32,22.99-6.61,3.13-12.13,5.73-16.01,7.53-3.26,1.52-5.06,2.36-6.17,2.76h0c-1.64.8-3.85,1.12-6.38,1.12ZM316.82,581.29c12.17,6.35,133.19,64.94,139.1,67.79,7.33,3.53,25.78,8.47,30.73,6.09l1.21-.58.1.05c12.53-5.56,134.19-63.82,139.73-66.49,7.33-3.53,22.7-14.88,23.92-20.23l.3-1.3.1-.05c3.47-13.23,33.56-143.79,35.14-150.7,1.81-7.93,2.52-27.02-.9-31.32l-.83-1.05.02-.11c-8.21-10.99-91.96-116.47-95.91-121.43-5.07-6.36-19.55-18.82-25.05-18.82h-1.34l-.07-.08c-13.68-.43-148.17-.72-154.74-.72-8.13,0-26.91,3.55-30.33,7.85l-.83,1.05h-.11c-8.88,10.44-92.95,115.4-97.04,120.53-5.07,6.36-14,23.25-12.78,28.61l.3,1.3-.07.08c2.63,13.46,32.32,144.84,33.73,151.02,1.81,7.93,9.45,25.44,14.4,27.82l1.21.58.02.11ZM315.94,580.81h0,0Z"/>
  <path class="cls-1" d="M482.37,614.12c-9.22,0-27.08-7.12-28.81-7.96-.14-.06-26.38-12.8-53.1-25.85-15.27-7.46-27.45-13.44-36.2-17.77-10.62-5.26-14.77-7.31-16.46-8.42v.03c-6.63-3.18-14.11-27.83-14.61-30.02-.14-.6-6.66-29.61-12.89-57.63-3.69-16.59-6.61-29.84-8.68-39.38-2.51-11.58-3.49-16.11-3.68-18.12h-.03c-1.63-7.15,12.97-28.37,14.37-30.12.09-.11,18.49-23.05,37.02-46.01,10.67-13.23,19.21-23.77,25.38-31.33,7.49-9.19,10.42-12.78,11.87-14.18l-.03-.02c4.58-5.74,30.27-7.55,32.52-7.55.14,0,29.42.09,59.06.26,17,.1,30.56.2,40.32.3,11.85.13,16.48.18,18.49.44v-.03c7.34,0,24.78,18.96,26.18,20.72.09.12,18.27,23.04,36.62,46.33,10.52,13.35,18.9,24.02,24.9,31.71,7.29,9.35,10.14,13,11.18,14.73l.03-.02c4.58,5.74.62,31.2.12,33.38-.03.13-6.59,28.48-13.39,57.52-3.88,16.55-6.99,29.75-9.27,39.24-2.76,11.53-3.84,16.03-4.54,17.92h.03c-1.63,7.16-24,19.94-26.02,20.92-.56.27-27.52,13.15-53.32,25.39-15.35,7.29-27.62,13.08-36.46,17.22-10.74,5.03-14.93,6.99-16.85,7.62v.03c-.93.45-2.22.65-3.75.65ZM350.85,550.56c9.32,5.06,100.14,49.18,104.73,51.39,6.69,3.22,25.27,8.87,28.52,7.31l1.01-.49.12.06c9.8-4.14,101.34-47.84,105.48-49.84,6.69-3.22,22.69-14.22,23.5-17.74l.25-1.1.12-.06c2.87-10.25,25.75-108.92,26.8-113.54,1.65-7.24,3.03-26.61.78-29.43l-.7-.88.03-.13c-6.2-8.6-68.88-87.76-72.06-91.74-4.63-5.8-18.92-18.96-22.53-18.96h-1.12l-.08-.11c-10.6-.51-111.91-.86-116.66-.86-7.42,0-26.62,2.97-28.87,5.79l-.7.88h-.14c-7.03,7.98-70.35,86.83-73.41,90.67-4.63,5.8-14.27,22.66-13.47,26.18l.25,1.1-.08.11c1.86,10.45,24.12,109.56,25.12,113.92,1.65,7.24,8.82,25.29,12.07,26.86l1.01.49.03.13Z"/>
  <path class="cls-6" d="M481.29,567.09c-7.38,0-27.49-8.74-27.7-8.85-.44-.21-18.02-8.79-35.85-17.6-25.72-12.7-33.11-16.44-35.34-17.98l-.02.03c-4.75-2.29-11.73-28.19-11.78-28.45-.11-.47-4.36-19.56-8.6-39-6.11-28.03-7.8-36.14-7.97-38.84h-.04c-1.17-5.13,14.73-26.74,14.9-26.94.32-.4,12.74-15.81,25.13-31.04,18.1-22.25,23.39-28.63,25.4-30.45l-.03-.02c3.29-4.12,30.1-5.16,30.36-5.16.5,0,20.18.1,39.94.3,28.68.28,36.96.44,39.64.87v-.04c5.27,0,22.8,20.31,22.96,20.52.31.4,12.58,15.94,24.67,31.41,17.66,22.6,22.7,29.17,24.04,31.54l.03-.02c3.29,4.12-1.67,30.49-1.73,30.75-.11.49-4.61,19.72-9.18,38.87-6.66,27.9-8.65,35.94-9.67,38.46h.04c-1.17,5.15-24.88,17.71-25.11,17.83-.46.22-18.34,8.71-36.11,17.06-25.96,12.19-33.49,15.64-36.1,16.42l.02.03c-.46.22-1.1.32-1.89.32ZM384.94,519.88c6.77,3.91,67.55,33.63,70.3,34.96,4.66,2.25,23.52,9.29,26.38,8.5l.82-.39.14.08c7.3-2.86,68.23-31.76,71.16-33.17,4.66-2.25,21.92-12.6,23.09-15.33l.2-.89.15-.06c2.31-7.47,17.74-73.25,18.44-76.31,1.15-5.05,3.82-24.99,2.41-27.61l-.57-.71.05-.16c-4.41-6.48-46.14-59.45-48.17-61.99-3.23-4.05-17.16-18.57-20.08-19.1h-.91l-.09-.13c-7.81-.59-75.36-.99-78.5-.99-5.18,0-25.21,1.84-27.46,3.79l-.57.71h-.16c-5.34,5.73-47.69,58.21-49.72,60.75-3.23,4.05-14.28,20.86-14.15,23.83l.2.89-.11.12c1.16,7.73,15.82,73.79,16.5,76.75,1.15,5.05,7.4,24.17,9.81,25.93l.82.39.03.16ZM482.02,563.22h0,0ZM597.84,409.29h0Z"/>
  <path class="cls-5" d="M479.41,520.26c-1.18,0-4.03-.76-13.02-4.45-5.92-2.43-11.86-5.06-12.76-5.49-.51-.24-9.56-4.73-18.62-9.34-13.12-6.67-16.99-8.82-18.2-9.83-.73-.41-1.71-1.64-5.14-13.39-1.79-6.14-3.44-12.43-3.66-13.4-.11-.48-2.27-10.51-4.3-20.38-2.96-14.41-3.69-18.78-3.67-20.36-.13-.82.21-2.36,7.27-12.37,3.69-5.23,7.57-10.44,8.19-11.21.35-.43,6.71-8.23,13.25-16.07,9.42-11.3,12.38-14.6,13.63-15.56.56-.62,1.98-1.31,14.2-2.03,6.38-.38,12.88-.59,13.88-.59.56,0,10.66.12,20.83.34,14.71.32,19.13.58,20.66.96.83.05,2.25.73,10.44,9.84,4.27,4.75,8.49,9.7,9.11,10.48.35.44,6.56,8.42,12.72,16.5,8.92,11.7,11.48,15.32,12.14,16.75.48.68.83,2.22-1.18,14.3-1.05,6.31-2.29,12.69-2.51,13.66-.12.55-2.49,10.36-4.97,20.23-3.59,14.27-4.82,18.53-5.53,19.93-.23.8-1.21,2.03-11.91,7.99-5.59,3.11-11.35,6.12-12.25,6.55-.51.25-9.68,4.53-18.92,8.73-13.39,6.09-17.49,7.78-19.03,8.1-.16.06-.35.12-.66.12ZM418.92,489.16c3.53,2.41,33.47,17.35,35.97,18.56,2.88,1.39,21.47,9.38,24.32,9.64l.41-.2.21.1c4.08-1.26,34.43-15.35,36.94-16.55,2.88-1.39,20.72-10.94,22.7-13l.1-.44.21-.1c1.57-3.98,9.47-36.49,10.09-39.2.71-3.11,4.37-23.02,3.98-25.85l-.28-.35.05-.23c-2.13-3.7-22.63-30.16-24.36-32.33-1.99-2.5-15.28-17.77-17.73-19.23h-.45l-.14-.18c-4.23-.64-37.69-1.11-40.46-1.11-3.19,0-23.42.86-26.09,1.87l-.28.35h-.23c-3.12,2.9-24.42,28.84-26.1,30.94-1.99,2.5-13.92,18.84-14.81,21.57l.1.44-.14.18c.32,4.25,7.32,37.07,7.92,39.69.71,3.11,6.05,22.64,7.63,25.02l.41.2.05.23ZM402.9,423.72,444.09,370.7,444.25,370.59h0ZM511.41,369.9h0ZM511.22,369.84h0,0Z"/>
  <path class="cls-10" d="M478.55,473.85c-.72,0-1.44-.16-2.11-.48l-22.76-10.96c-1.34-.65-2.3-1.85-2.63-3.3l-5.62-24.63c-.33-1.45.01-2.95.94-4.11l15.75-19.75c.93-1.16,2.31-1.83,3.8-1.83h25.26c1.49,0,2.87.67,3.8,1.83l15.75,19.75c.93,1.16,1.27,2.66.94,4.11l-5.62,24.63c-.33,1.45-1.29,2.65-2.63,3.3l-22.76,10.96c-.67.32-1.39.48-2.11.48ZM465.92,410.78c-.88,0-1.69.39-2.24,1.08l-15.75,19.75c-.55.69-.75,1.57-.55,2.42l5.62,24.63c.19.85.76,1.56,1.55,1.94l22.76,10.96c.79.38,1.7.38,2.48,0l22.76-10.96c.79-.38,1.35-1.09,1.55-1.94l5.62-24.63c.2-.85,0-1.74-.55-2.42l-15.75-19.75c-.55-.69-1.36-1.08-2.24-1.08h-25.26Z"/>
</svg>