<?xml version="1.0" encoding="UTF-8"?>
<svg id="Layer_1" data-name="Layer 1" xmlns="http://www.w3.org/2000/svg" viewBox="0 0 695.06 205.83">
  <defs>
    <style>
      .cls-1 {
        fill: #11257c;
      }

      .cls-2 {
        fill: #182360;
      }

      .cls-3 {
        fill: #6171ff;
      }
    </style>
  </defs>
  <g>
    <path class="cls-1" d="M176.97,157.73v-22.06h7.75c1.56,0,2.84.25,3.86.74s1.78,1.17,2.29,2.02c.5.85.75,1.81.75,2.85,0,1.13-.25,2.09-.74,2.84-.49.75-1.13,1.33-1.92,1.73-.78.4-1.63.64-2.5.73l.44-.31c.94.02,1.82.27,2.61.75s1.44,1.13,1.91,1.95.71,1.74.71,2.75c0,1.11-.27,2.13-.82,3.04-.55.92-1.35,1.64-2.41,2.18s-2.37.81-3.92.81h-8.01.01ZM179.62,145.32h4.91c1.42,0,2.51-.34,3.26-1.01.75-.67,1.12-1.58,1.12-2.75s-.37-2.01-1.12-2.68-1.86-1.01-3.35-1.01h-4.82v7.43h0ZM179.62,155.52h5.08c1.49,0,2.66-.35,3.49-1.05s1.24-1.68,1.24-2.95-.43-2.23-1.28-2.98-2.02-1.12-3.51-1.12h-5.01v8.1h-.01Z"/>
    <path class="cls-1" d="M206.79,157.73v-8.39l-7.19-13.68h2.99l5.92,11.94h-.78l5.9-11.94h2.96l-7.15,13.68v8.39h-2.65Z"/>
    <path class="cls-1" d="M240.6,157.73v-22.06h6.49c2.58,0,4.72.45,6.4,1.33,1.68.9,2.93,2.16,3.73,3.81.81,1.65,1.21,3.63,1.21,5.94s-.4,4.23-1.21,5.86c-.81,1.64-2.05,2.9-3.73,3.78s-3.81,1.32-6.4,1.32h-6.49ZM243.24,155.52h3.78c2.14,0,3.85-.35,5.12-1.05,1.27-.71,2.18-1.72,2.72-3.03s.82-2.87.82-4.68-.27-3.43-.82-4.75-1.46-2.34-2.72-3.06c-1.27-.72-2.98-1.08-5.12-1.08h-3.78v17.65Z"/>
    <path class="cls-1" d="M268.58,157.73v-22.06h13.65v2.18h-11v7.69h10.06v2.14h-10.06v7.88h11v2.18h-13.65Z"/>
    <path class="cls-1" d="M291.28,157.73l8.13-22.06h2.8l8.1,22.06h-2.8l-6.72-18.75-6.74,18.75h-2.77ZM295,152.06l.75-2.14h9.99l.75,2.14h-11.5.01Z"/>
    <path class="cls-1" d="M319.93,157.73v-22.06h2.65v19.95h10.27v2.11h-12.92,0Z"/>
    <path class="cls-1" d="M345.17,157.73l-6.06-22.06h2.84l4.75,18.91,5.39-18.91h2.96l5.26,18.97,4.82-18.97h2.84l-6.18,22.06h-3.03l-5.26-18.24-5.39,18.24h-2.96.01Z"/>
    <path class="cls-1" d="M377.44,157.73v-22.06h2.65v22.06h-2.65Z"/>
    <path class="cls-1" d="M398.15,158.11c-1.61,0-3.03-.29-4.23-.89-1.2-.58-2.12-1.41-2.77-2.46-.65-1.05-.98-2.27-.98-3.66h2.77c0,.86.2,1.66.59,2.38.4.73.99,1.3,1.75,1.74.76.43,1.72.65,2.85.65.99,0,1.83-.16,2.53-.49.71-.33,1.24-.77,1.6-1.33.37-.57.55-1.21.55-1.92,0-.86-.18-1.56-.55-2.1s-.86-.98-1.5-1.31c-.63-.34-1.36-.64-2.19-.9s-1.69-.55-2.6-.86c-1.75-.58-3.03-1.32-3.85-2.19-.82-.87-1.23-2.01-1.23-3.42,0-1.2.28-2.24.84-3.15s1.36-1.61,2.4-2.13,2.28-.77,3.7-.77,2.64.26,3.67.78c1.04.53,1.85,1.24,2.44,2.16.58.91.89,1.97.89,3.16h-2.77c0-.61-.16-1.21-.47-1.79s-.8-1.08-1.44-1.47-1.45-.58-2.41-.58c-.8-.02-1.5.11-2.13.39-.62.28-1.1.68-1.45,1.21-.35.53-.52,1.17-.52,1.92s.16,1.29.46,1.73c.3.44.75.82,1.32,1.12.58.3,1.26.58,2.03.84s1.64.54,2.58.85c1.08.36,2.02.8,2.85,1.31.83.52,1.48,1.17,1.95,1.97.47.8.71,1.82.71,3.06,0,1.05-.28,2.04-.84,2.98-.56.93-1.38,1.69-2.48,2.29-1.09.58-2.47.89-4.13.89l.03-.02Z"/>
    <path class="cls-1" d="M415.7,157.73v-22.06h13.65v2.18h-11v7.69h10.06v2.14h-10.06v7.88h11v2.18h-13.65Z"/>
  </g>
  <g>
    <path class="cls-1" d="M176.39,116.36v-47.62h12.57l1.32,8.69c1.26-2.02,2.74-3.75,4.44-5.2s3.67-2.58,5.91-3.4,4.64-1.23,7.23-1.23v15.02h-4.72c-1.89,0-3.61.21-5.15.61-1.54.41-2.87,1.09-3.97,2.03-1.1.95-1.95,2.22-2.55,3.83-.6,1.61-.9,3.61-.9,6v21.26h-14.18Z"/>
    <path class="cls-1" d="M239.04,117.5c-4.91,0-9.23-1.02-12.95-3.07-3.72-2.05-6.63-4.91-8.74-8.6s-3.16-7.92-3.16-12.71,1.04-9.29,3.12-13.13c2.08-3.84,4.98-6.87,8.69-9.07,3.72-2.2,8.03-3.31,12.95-3.31s8.98,1.04,12.57,3.12c3.59,2.08,6.41,4.9,8.46,8.46,2.05,3.56,3.07,7.67,3.07,12.33,0,.63-.02,1.34-.05,2.13-.03.79-.11,1.59-.24,2.41h-38.46v-8.22h24.29c-.13-2.65-1.09-4.77-2.88-6.38-1.79-1.61-4.02-2.41-6.66-2.41-2.02,0-3.84.47-5.48,1.42-1.64.95-2.94,2.36-3.92,4.25s-1.47,4.28-1.47,7.18v2.83c0,2.21.43,4.16,1.28,5.86.85,1.7,2.08,3.02,3.69,3.97,1.61.94,3.51,1.42,5.72,1.42,2.08,0,3.79-.43,5.15-1.28,1.35-.85,2.41-1.94,3.17-3.26h14.46c-.88,3.02-2.4,5.75-4.53,8.17-2.14,2.43-4.76,4.35-7.84,5.76-3.09,1.42-6.49,2.13-10.21,2.13h-.03Z"/>
    <path class="cls-1" d="M284.02,116.36l-17.29-47.62h14.93l11.06,34.3,11.06-34.3h14.74l-17.2,47.62h-17.3Z"/>
    <path class="cls-1" d="M347.33,117.5c-4.91,0-9.23-1.02-12.95-3.07s-6.63-4.91-8.74-8.6c-2.11-3.69-3.16-7.92-3.16-12.71s1.04-9.29,3.12-13.13,4.98-6.87,8.69-9.07c3.72-2.2,8.03-3.31,12.95-3.31s8.98,1.04,12.57,3.12c3.59,2.08,6.41,4.9,8.46,8.46,2.05,3.56,3.07,7.67,3.07,12.33,0,.63-.02,1.34-.05,2.13-.03.79-.11,1.59-.24,2.41h-38.46v-8.22h24.29c-.13-2.65-1.09-4.77-2.88-6.38-1.79-1.61-4.02-2.41-6.66-2.41-2.02,0-3.84.47-5.48,1.42-1.64.95-2.94,2.36-3.92,4.25s-1.47,4.28-1.47,7.18v2.83c0,2.21.43,4.16,1.28,5.86.85,1.7,2.08,3.02,3.69,3.97,1.61.94,3.51,1.42,5.72,1.42,2.08,0,3.79-.43,5.15-1.28,1.35-.85,2.41-1.94,3.17-3.26h14.46c-.88,3.02-2.4,5.75-4.53,8.17-2.14,2.43-4.76,4.35-7.84,5.76-3.09,1.42-6.49,2.13-10.21,2.13h-.03Z"/>
    <path class="cls-1" d="M381.72,116.36v-47.62h12.38l1.13,7.65c1.45-2.65,3.5-4.77,6.14-6.38,2.65-1.61,5.86-2.41,9.64-2.41,3.97,0,7.31.85,10.02,2.55s4.77,4.14,6.19,7.32c1.42,3.18,2.13,7.07,2.13,11.67v27.21h-14.08v-25.89c0-3.46-.74-6.16-2.22-8.08-1.48-1.92-3.83-2.88-7.04-2.88-1.89,0-3.61.46-5.15,1.37-1.55.91-2.76,2.22-3.64,3.92-.88,1.7-1.32,3.75-1.32,6.14v25.42h-14.18Z"/>
    <path class="cls-1" d="M459.11,117.5c-3.97,0-7.32-.82-10.06-2.46-2.74-1.64-4.82-4.05-6.24-7.23-1.42-3.18-2.13-7.07-2.13-11.67v-27.4h14.17v25.99c0,3.53.72,6.22,2.17,8.08,1.45,1.86,3.78,2.79,6.99,2.79,1.95,0,3.7-.44,5.24-1.32s2.74-2.17,3.59-3.87c.85-1.7,1.28-3.78,1.28-6.24v-25.42h14.17v47.62h-12.38l-1.13-7.56c-1.39,2.58-3.4,4.68-6.05,6.28-2.65,1.61-5.86,2.41-9.64,2.41h.02Z"/>
    <path class="cls-1" d="M524.03,117.5c-4.91,0-9.23-1.02-12.95-3.07-3.72-2.05-6.63-4.91-8.74-8.6-2.11-3.69-3.16-7.92-3.16-12.71s1.04-9.29,3.12-13.13c2.08-3.84,4.98-6.87,8.69-9.07,3.72-2.2,8.03-3.31,12.95-3.31s8.98,1.04,12.57,3.12c3.59,2.08,6.41,4.9,8.46,8.46,2.05,3.56,3.07,7.67,3.07,12.33,0,.63-.02,1.34-.05,2.13s-.11,1.59-.24,2.41h-38.46v-8.22h24.29c-.13-2.65-1.09-4.77-2.88-6.38s-4.01-2.41-6.66-2.41c-2.02,0-3.84.47-5.48,1.42s-2.94,2.36-3.92,4.25c-.98,1.89-1.47,4.28-1.47,7.18v2.83c0,2.21.43,4.16,1.28,5.86.85,1.7,2.08,3.02,3.69,3.97,1.61.94,3.51,1.42,5.72,1.42,2.08,0,3.8-.43,5.15-1.28,1.35-.85,2.41-1.94,3.16-3.26h14.46c-.88,3.02-2.4,5.75-4.54,8.17-2.14,2.43-4.76,4.35-7.84,5.76-3.09,1.42-6.49,2.13-10.21,2.13h0Z"/>
  </g>
  <g>
    <path class="cls-3" d="M558.89,116.36v-62.03h7.94v62.03h-7.94Z"/>
    <path class="cls-3" d="M595.46,117.5c-3.84,0-7.06-.68-9.64-2.03-2.58-1.35-4.5-3.15-5.76-5.39-1.26-2.24-1.89-4.68-1.89-7.32,0-3.21.83-5.94,2.5-8.17,1.67-2.24,4.03-3.94,7.09-5.1,3.06-1.17,6.66-1.75,10.82-1.75h12.57c0-2.96-.46-5.43-1.37-7.42-.91-1.98-2.24-3.48-3.97-4.49s-3.89-1.51-6.47-1.51c-3.02,0-5.64.76-7.84,2.27-2.21,1.51-3.56,3.75-4.06,6.71h-8.13c.38-3.4,1.53-6.25,3.45-8.55,1.92-2.3,4.36-4.06,7.32-5.29s6.05-1.84,9.26-1.84c4.41,0,8.08.8,11.01,2.41,2.93,1.61,5.12,3.84,6.57,6.71,1.45,2.87,2.17,6.25,2.17,10.16v29.48h-7.09l-.47-8.41c-.63,1.32-1.43,2.57-2.41,3.73-.98,1.17-2.11,2.17-3.4,3.02-1.29.85-2.79,1.53-4.49,2.03s-3.62.76-5.76.76h0ZM596.69,110.79c2.2,0,4.2-.46,6-1.37s3.32-2.17,4.58-3.78c1.26-1.61,2.22-3.39,2.88-5.34.66-1.95.99-4,.99-6.14v-.28h-11.91c-3.09,0-5.58.36-7.46,1.09-1.89.72-3.24,1.73-4.06,3.02-.82,1.29-1.23,2.76-1.23,4.39s.39,3.18,1.18,4.44,1.95,2.24,3.5,2.93c1.54.69,3.39,1.04,5.53,1.04h0Z"/>
    <path class="cls-3" d="M656.31,117.5c-2.71,0-5.15-.39-7.32-1.18-2.17-.79-4.08-1.84-5.72-3.17-1.64-1.32-2.99-2.87-4.06-4.63l-.66,7.84h-7.18v-62.03h7.94v22.25c1.51-2.46,3.68-4.57,6.52-6.33,2.83-1.76,6.33-2.65,10.49-2.65,4.66,0,8.71,1.09,12.14,3.26,3.43,2.17,6.11,5.14,8.03,8.88,1.92,3.75,2.88,8.02,2.88,12.8s-.96,9.07-2.88,12.85c-1.92,3.78-4.62,6.74-8.08,8.88-3.47,2.14-7.5,3.21-12.09,3.21v.02ZM655.37,110.6c3.15,0,5.92-.76,8.31-2.27s4.27-3.61,5.62-6.28c1.35-2.68,2.03-5.84,2.03-9.5s-.68-6.74-2.03-9.45c-1.36-2.71-3.23-4.82-5.62-6.33s-5.17-2.27-8.31-2.27-5.92.76-8.31,2.27c-2.4,1.51-4.25,3.62-5.58,6.33-1.32,2.71-1.98,5.86-1.98,9.45s.66,6.82,1.98,9.5c1.32,2.68,3.18,4.77,5.58,6.28,2.39,1.51,5.16,2.27,8.31,2.27Z"/>
  </g>
  <g>
    <g>
      <path class="cls-2" d="M64.51,86.03c.78.33,1.67-.06,1.98-.85,1.16-2.89,3.33-5.25,6.19-6.63l.08-.04-3.4-4.76c-.47-.66-1.38-.83-2.06-.38-3.37,2.21-5.96,5.37-7.46,9.09-.31.77.06,1.64.82,1.96l3.85,1.61Z"/>
      <path class="cls-2" d="M60.08,112.47l.05-.23-5.86-.31c-.81-.04-1.5.56-1.59,1.37-.41,4.07.44,8.12,2.45,11.67.41.72,1.32.98,2.05.58l3.66-2c.75-.41.99-1.35.57-2.08-1.55-2.71-2.04-5.89-1.33-8.99Z"/>
      <path class="cls-2" d="M138.71,86.03l3.85-1.61c.76-.32,1.13-1.2.82-1.96-1.5-3.73-4.09-6.89-7.46-9.09-.68-.44-1.59-.28-2.06.38l-3.4,4.76.08.04c2.86,1.38,5.04,3.74,6.19,6.63.32.79,1.2,1.18,1.98.85Z"/>
      <path class="cls-2" d="M124.53,143.38l-.07.09c-2.03,2.54-4.9,4.16-8.07,4.6-.85.12-1.45.9-1.3,1.75l.71,4.11c.14.81.9,1.36,1.72,1.24,4.08-.59,7.85-2.44,10.82-5.31.58-.56.63-1.49.09-2.1l-3.89-4.38Z"/>
      <path class="cls-2" d="M143.13,112.47c.71,3.1.21,6.28-1.33,8.99-.42.74-.18,1.68.57,2.08l3.66,2c.73.4,1.64.14,2.05-.58,2.01-3.54,2.86-7.6,2.45-11.66-.08-.8-.78-1.41-1.59-1.37l-5.86.31.05.23Z"/>
      <path class="cls-2" d="M88.13,149.82c.15-.85-.45-1.63-1.3-1.75-3.17-.44-6.04-2.06-8.07-4.6l-.07-.09-3.89,4.38c-.54.61-.5,1.53.09,2.1,2.97,2.87,6.74,4.72,10.82,5.31.81.12,1.57-.43,1.72-1.24l.71-4.11Z"/>
      <path class="cls-2" d="M95.89,65.58c.24.83,1.11,1.27,1.93,1.01,1.23-.39,2.51-.6,3.78-.6s2.55.2,3.78.6c.82.26,1.7-.18,1.93-1.01l1.14-4.01c.23-.8-.24-1.62-1.03-1.86-3.8-1.18-7.84-1.18-11.65,0-.79.25-1.25,1.07-1.03,1.86l1.14,4.01Z"/>
    </g>
    <g>
      <g id="_Radial_Repeat_" data-name="&amp;lt;Radial Repeat&amp;gt;">
        <path class="cls-3" d="M95.97,127.62h11.27c1.13,0,2.1.81,2.29,1.93l5.84,33.61c.25,1.42-.85,2.73-2.29,2.73h-22.95c-1.45,0-2.54-1.3-2.29-2.73l5.84-33.61c.19-1.12,1.16-1.93,2.29-1.93Z"/>
      </g>
      <g id="_Radial_Repeat_-2" data-name="&amp;lt;Radial Repeat&amp;gt;">
        <path class="cls-3" d="M82.94,115.92l7.03,8.81c.71.89.67,2.15-.08,3l-22.64,25.52c-.96,1.08-2.66,1.04-3.56-.09l-14.31-17.94c-.9-1.13-.57-2.8.7-3.49l29.92-16.39c.99-.54,2.23-.3,2.94.59Z"/>
      </g>
      <g id="_Radial_Repeat_-3" data-name="&amp;lt;Radial Repeat&amp;gt;">
        <path class="cls-3" d="M83.97,98.44l-2.51,10.99c-.25,1.1-1.26,1.87-2.39,1.81l-34.07-1.79c-1.44-.08-2.47-1.43-2.15-2.84l5.11-22.37c.32-1.41,1.84-2.19,3.17-1.63l31.47,13.17c1.04.44,1.62,1.56,1.37,2.67Z"/>
      </g>
      <g id="_Radial_Repeat_-4" data-name="&amp;lt;Radial Repeat&amp;gt;">
        <path class="cls-3" d="M98.28,88.34l-10.15,4.89c-1.02.49-2.25.18-2.91-.74l-19.84-27.75c-.84-1.18-.42-2.83.88-3.45l20.67-9.96c1.3-.63,2.86.07,3.25,1.46l9.32,32.82c.31,1.09-.21,2.24-1.23,2.73Z"/>
      </g>
      <g id="_Radial_Repeat_-5" data-name="&amp;lt;Radial Repeat&amp;gt;">
        <path class="cls-3" d="M115.09,93.23l-10.15-4.89c-1.02-.49-1.54-1.65-1.23-2.73l9.32-32.82c.4-1.39,1.95-2.09,3.25-1.46l20.67,9.96c1.3.63,1.72,2.28.88,3.45l-19.84,27.75c-.66.92-1.88,1.24-2.91.74Z"/>
      </g>
      <g id="_Radial_Repeat_-6" data-name="&amp;lt;Radial Repeat&amp;gt;">
        <path class="cls-3" d="M121.75,109.42l-2.51-10.99c-.25-1.1.33-2.23,1.37-2.67l31.47-13.17c1.33-.56,2.85.22,3.17,1.63l5.11,22.37c.32,1.41-.7,2.77-2.15,2.84l-34.07,1.79c-1.13.06-2.14-.7-2.39-1.81Z"/>
      </g>
      <g id="_Radial_Repeat_-7" data-name="&amp;lt;Radial Repeat&amp;gt;">
        <path class="cls-3" d="M113.24,124.73l7.03-8.81c.71-.89,1.95-1.13,2.94-.59l29.92,16.39c1.27.69,1.6,2.36.7,3.49l-14.31,17.94c-.9,1.13-2.6,1.17-3.56.09l-22.64-25.52c-.75-.85-.78-2.11-.08-3Z"/>
      </g>
    </g>
  </g>
</svg>