<?xml version="1.0" encoding="UTF-8"?>
<svg id="Layer_1" data-name="Layer 1" xmlns="http://www.w3.org/2000/svg" viewBox="0 0 450.83 315.12">
  <defs>
    <style>
      .cls-1 {
        fill: #11257c;
      }
    </style>
  </defs>
  <g>
    <path class="cls-1" d="M44.09,207.22v-47.62h12.57l1.32,8.69c1.26-2.02,2.74-3.75,4.44-5.2s3.67-2.58,5.91-3.4,4.64-1.23,7.23-1.23v15.02h-4.72c-1.89,0-3.61.21-5.15.61-1.54.41-2.87,1.09-3.97,2.03-1.1.95-1.95,2.22-2.55,3.83-.6,1.61-.9,3.61-.9,6v21.26h-14.18Z"/>
    <path class="cls-1" d="M106.74,208.36c-4.91,0-9.23-1.02-12.95-3.07s-6.63-4.91-8.74-8.6c-2.11-3.69-3.16-7.92-3.16-12.71s1.04-9.29,3.12-13.13,4.98-6.87,8.69-9.07c3.72-2.2,8.03-3.31,12.95-3.31s8.98,1.04,12.57,3.12,6.41,4.9,8.46,8.46c2.05,3.56,3.07,7.67,3.07,12.33,0,.63-.02,1.34-.05,2.13-.03.79-.11,1.59-.24,2.41h-38.46v-8.22h24.29c-.13-2.65-1.09-4.77-2.88-6.38-1.79-1.61-4.02-2.41-6.66-2.41-2.02,0-3.84.47-5.48,1.42-1.64.95-2.94,2.36-3.92,4.25s-1.47,4.28-1.47,7.18v2.83c0,2.21.43,4.16,1.28,5.86.85,1.7,2.08,3.02,3.69,3.97,1.61.94,3.51,1.42,5.72,1.42,2.08,0,3.79-.43,5.15-1.28,1.35-.85,2.41-1.94,3.17-3.26h14.46c-.88,3.02-2.4,5.75-4.53,8.17-2.14,2.43-4.76,4.35-7.84,5.76-3.09,1.42-6.49,2.13-10.21,2.13h-.03Z"/>
    <path class="cls-1" d="M151.72,207.22l-17.29-47.62h14.93l11.06,34.3,11.06-34.3h14.74l-17.2,47.62h-17.3Z"/>
    <path class="cls-1" d="M215.03,208.36c-4.91,0-9.23-1.02-12.95-3.07s-6.63-4.91-8.74-8.6-3.16-7.92-3.16-12.71,1.04-9.29,3.12-13.13c2.08-3.84,4.98-6.87,8.69-9.07,3.72-2.2,8.03-3.31,12.95-3.31s8.98,1.04,12.57,3.12,6.41,4.9,8.46,8.46c2.05,3.56,3.07,7.67,3.07,12.33,0,.63-.02,1.34-.05,2.13-.03.79-.11,1.59-.24,2.41h-38.46v-8.22h24.29c-.13-2.65-1.09-4.77-2.88-6.38-1.79-1.61-4.02-2.41-6.66-2.41-2.02,0-3.84.47-5.48,1.42-1.64.95-2.94,2.36-3.92,4.25s-1.47,4.28-1.47,7.18v2.83c0,2.21.43,4.16,1.28,5.86.85,1.7,2.08,3.02,3.69,3.97,1.61.94,3.51,1.42,5.72,1.42,2.08,0,3.79-.43,5.15-1.28,1.35-.85,2.41-1.94,3.17-3.26h14.46c-.88,3.02-2.4,5.75-4.53,8.17-2.14,2.43-4.76,4.35-7.84,5.76-3.09,1.42-6.49,2.13-10.21,2.13h-.03Z"/>
    <path class="cls-1" d="M249.42,207.22v-47.62h12.38l1.13,7.65c1.45-2.65,3.5-4.77,6.14-6.38,2.65-1.61,5.86-2.41,9.64-2.41,3.97,0,7.31.85,10.02,2.55s4.77,4.14,6.19,7.32c1.42,3.18,2.13,7.07,2.13,11.67v27.21h-14.08v-25.89c0-3.46-.74-6.16-2.22-8.08-1.48-1.92-3.83-2.88-7.04-2.88-1.89,0-3.61.46-5.15,1.37-1.55.91-2.76,2.22-3.64,3.92-.88,1.7-1.32,3.75-1.32,6.14v25.42h-14.18Z"/>
    <path class="cls-1" d="M326.81,208.36c-3.97,0-7.32-.82-10.06-2.46-2.74-1.64-4.82-4.05-6.24-7.23s-2.13-7.07-2.13-11.67v-27.4h14.17v25.99c0,3.53.72,6.22,2.17,8.08,1.45,1.86,3.78,2.79,6.99,2.79,1.95,0,3.7-.44,5.24-1.32s2.74-2.17,3.59-3.87c.85-1.7,1.28-3.78,1.28-6.24v-25.42h14.17v47.62h-12.38l-1.13-7.56c-1.39,2.58-3.4,4.68-6.05,6.28-2.65,1.61-5.86,2.41-9.64,2.41h.02Z"/>
    <path class="cls-1" d="M391.73,208.36c-4.91,0-9.23-1.02-12.95-3.07-3.72-2.05-6.63-4.91-8.74-8.6-2.11-3.69-3.16-7.92-3.16-12.71s1.04-9.29,3.12-13.13c2.08-3.84,4.98-6.87,8.69-9.07,3.72-2.2,8.03-3.31,12.95-3.31s8.98,1.04,12.57,3.12c3.59,2.08,6.41,4.9,8.46,8.46,2.05,3.56,3.07,7.67,3.07,12.33,0,.63-.02,1.34-.05,2.13s-.11,1.59-.24,2.41h-38.46v-8.22h24.29c-.13-2.65-1.09-4.77-2.88-6.38s-4.01-2.41-6.66-2.41c-2.02,0-3.84.47-5.48,1.42s-2.94,2.36-3.92,4.25c-.98,1.89-1.47,4.28-1.47,7.18v2.83c0,2.21.43,4.16,1.28,5.86.85,1.7,2.08,3.02,3.69,3.97,1.61.94,3.51,1.42,5.72,1.42,2.08,0,3.8-.43,5.15-1.28,1.35-.85,2.41-1.94,3.16-3.26h14.46c-.88,3.02-2.4,5.75-4.54,8.17-2.14,2.43-4.76,4.35-7.84,5.76-3.09,1.42-6.49,2.13-10.21,2.13h0Z"/>
  </g>
  <g>
    <path class="cls-1" d="M44.09,289.57v-62.03h7.94v62.03h-7.94Z"/>
    <path class="cls-1" d="M80.66,290.71c-3.84,0-7.06-.68-9.64-2.03-2.58-1.35-4.5-3.15-5.76-5.39-1.26-2.24-1.89-4.68-1.89-7.32,0-3.21.83-5.94,2.5-8.17,1.67-2.24,4.03-3.94,7.09-5.1,3.06-1.17,6.66-1.75,10.82-1.75h12.57c0-2.96-.46-5.43-1.37-7.42-.91-1.98-2.24-3.48-3.97-4.49s-3.89-1.51-6.47-1.51c-3.02,0-5.64.76-7.84,2.27-2.21,1.51-3.56,3.75-4.06,6.71h-8.13c.38-3.4,1.53-6.25,3.45-8.55,1.92-2.3,4.36-4.06,7.32-5.29s6.05-1.84,9.26-1.84c4.41,0,8.08.8,11.01,2.41,2.93,1.61,5.12,3.84,6.57,6.71,1.45,2.87,2.17,6.25,2.17,10.16v29.48h-7.09l-.47-8.41c-.63,1.32-1.43,2.57-2.41,3.73-.98,1.17-2.11,2.17-3.4,3.02-1.29.85-2.79,1.53-4.49,2.03s-3.62.76-5.76.76h0ZM81.89,284c2.2,0,4.2-.46,6-1.37s3.32-2.17,4.58-3.78c1.26-1.61,2.22-3.39,2.88-5.34.66-1.95.99-4,.99-6.14v-.28h-11.91c-3.09,0-5.58.36-7.46,1.09-1.89.72-3.24,1.73-4.06,3.02-.82,1.29-1.23,2.76-1.23,4.39s.39,3.18,1.18,4.44,1.95,2.24,3.5,2.93c1.54.69,3.39,1.04,5.53,1.04h0Z"/>
    <path class="cls-1" d="M141.51,290.71c-2.71,0-5.15-.39-7.32-1.18-2.17-.79-4.08-1.84-5.72-3.17-1.64-1.32-2.99-2.87-4.06-4.63l-.66,7.84h-7.18v-62.03h7.94v22.25c1.51-2.46,3.68-4.57,6.52-6.33,2.83-1.76,6.33-2.65,10.49-2.65,4.66,0,8.71,1.09,12.14,3.26s6.11,5.14,8.03,8.88c1.92,3.75,2.88,8.02,2.88,12.8s-.96,9.07-2.88,12.85c-1.92,3.78-4.62,6.74-8.08,8.88-3.47,2.14-7.5,3.21-12.09,3.21v.02ZM140.57,283.81c3.15,0,5.92-.76,8.31-2.27s4.27-3.61,5.62-6.28c1.35-2.68,2.03-5.84,2.03-9.5s-.68-6.74-2.03-9.45c-1.36-2.71-3.23-4.82-5.62-6.33s-5.17-2.27-8.31-2.27-5.92.76-8.31,2.27c-2.4,1.51-4.25,3.62-5.58,6.33-1.32,2.71-1.98,5.86-1.98,9.45s.66,6.82,1.98,9.5c1.32,2.68,3.18,4.77,5.58,6.28,2.39,1.51,5.16,2.27,8.31,2.27Z"/>
  </g>
  <g>
    <g>
      <path class="cls-1" d="M55.12,56.63c.72.3,1.54-.06,1.83-.79,1.07-2.67,3.07-4.85,5.71-6.12l.08-.04-3.14-4.39c-.44-.61-1.28-.76-1.9-.35-3.11,2.03-5.49,4.95-6.88,8.39-.29.71.05,1.52.76,1.81l3.55,1.49Z"/>
      <path class="cls-1" d="M51.04,81.02l.05-.21-5.4-.28c-.74-.04-1.39.52-1.46,1.26-.38,3.75.41,7.49,2.26,10.76.38.66,1.22.91,1.89.54l3.38-1.85c.69-.38.91-1.24.52-1.92-1.43-2.5-1.88-5.43-1.23-8.29Z"/>
      <path class="cls-1" d="M123.56,56.63l3.55-1.49c.7-.29,1.04-1.1.76-1.81-1.38-3.44-3.77-6.35-6.88-8.39-.63-.41-1.47-.26-1.9.35l-3.14,4.39.08.04c2.64,1.27,4.64,3.45,5.71,6.12.29.73,1.11,1.09,1.83.79Z"/>
      <path class="cls-1" d="M110.49,109.53l-.07.09c-1.87,2.35-4.52,3.84-7.44,4.24-.79.11-1.34.83-1.2,1.61l.66,3.79c.13.75.83,1.25,1.58,1.14,3.76-.55,7.24-2.25,9.98-4.9.54-.52.58-1.37.08-1.94l-3.58-4.04Z"/>
      <path class="cls-1" d="M127.64,81.02c.65,2.86.2,5.79-1.23,8.29-.39.68-.17,1.55.52,1.92l3.38,1.85c.67.37,1.51.13,1.89-.54,1.85-3.27,2.64-7.01,2.26-10.76-.08-.74-.72-1.3-1.46-1.26l-5.4.28.05.21Z"/>
      <path class="cls-1" d="M76.91,115.47c.14-.78-.41-1.5-1.2-1.61-2.92-.4-5.57-1.9-7.44-4.24l-.07-.09-3.58,4.04c-.5.56-.46,1.41.08,1.94,2.74,2.65,6.21,4.35,9.98,4.9.75.11,1.45-.4,1.58-1.14l.66-3.79Z"/>
      <path class="cls-1" d="M84.07,37.77c.22.76,1.02,1.17,1.78.93,1.14-.36,2.31-.55,3.49-.55s2.35.19,3.49.55c.76.24,1.56-.17,1.78-.93l1.05-3.7c.21-.74-.22-1.49-.95-1.72-3.51-1.09-7.24-1.09-10.74,0-.73.23-1.16.98-.95,1.72l1.05,3.7Z"/>
    </g>
    <g>
      <g id="_Radial_Repeat_" data-name="&amp;lt;Radial Repeat&amp;gt;">
        <path class="cls-1" d="M84.14,94.99h10.39c1.04,0,1.94.75,2.12,1.78l5.39,31c.23,1.31-.78,2.52-2.12,2.52h-21.16c-1.33,0-2.34-1.2-2.12-2.52l5.39-31c.18-1.03,1.07-1.78,2.12-1.78Z"/>
      </g>
      <g id="_Radial_Repeat_-2" data-name="&amp;lt;Radial Repeat&amp;gt;">
        <path class="cls-1" d="M72.13,84.2l6.48,8.13c.65.82.62,1.98-.07,2.76l-20.88,23.54c-.88,1-2.46.96-3.29-.09l-13.2-16.55c-.83-1.04-.52-2.58.65-3.22l27.6-15.12c.92-.5,2.06-.27,2.71.54Z"/>
      </g>
      <g id="_Radial_Repeat_-3" data-name="&amp;lt;Radial Repeat&amp;gt;">
        <path class="cls-1" d="M73.07,68.08l-2.31,10.13c-.23,1.02-1.16,1.72-2.21,1.67l-31.42-1.65c-1.33-.07-2.28-1.32-1.98-2.62l4.71-20.63c.3-1.3,1.69-2.02,2.92-1.5l29.03,12.15c.96.4,1.5,1.44,1.26,2.46Z"/>
      </g>
      <g id="_Radial_Repeat_-4" data-name="&amp;lt;Radial Repeat&amp;gt;">
        <path class="cls-1" d="M86.27,58.76l-9.36,4.51c-.94.45-2.07.16-2.68-.69l-18.3-25.6c-.78-1.08-.39-2.61.82-3.19l19.07-9.18c1.2-.58,2.63.07,3,1.35l8.6,30.27c.29,1-.19,2.07-1.13,2.52Z"/>
      </g>
      <g id="_Radial_Repeat_-5" data-name="&amp;lt;Radial Repeat&amp;gt;">
        <path class="cls-1" d="M101.78,63.27l-9.36-4.51c-.94-.45-1.42-1.52-1.13-2.52l8.6-30.27c.36-1.28,1.8-1.93,3-1.35l19.07,9.18c1.2.58,1.59,2.1.82,3.19l-18.3,25.6c-.61.85-1.74,1.14-2.68.69Z"/>
      </g>
      <g id="_Radial_Repeat_-6" data-name="&amp;lt;Radial Repeat&amp;gt;">
        <path class="cls-1" d="M107.92,78.21l-2.31-10.13c-.23-1.02.3-2.06,1.26-2.46l29.03-12.15c1.23-.51,2.63.2,2.92,1.5l4.71,20.63c.3,1.3-.65,2.55-1.98,2.62l-31.42,1.65c-1.04.05-1.97-.65-2.21-1.67Z"/>
      </g>
      <g id="_Radial_Repeat_-7" data-name="&amp;lt;Radial Repeat&amp;gt;">
        <path class="cls-1" d="M100.07,92.33l6.48-8.13c.65-.82,1.8-1.05,2.71-.54l27.6,15.12c1.17.64,1.48,2.18.65,3.22l-13.2,16.55c-.83,1.04-2.4,1.08-3.29.09l-20.88-23.54c-.69-.78-.72-1.95-.07-2.76Z"/>
      </g>
    </g>
  </g>
  <g>
    <path class="cls-1" d="M192.61,289.44v-19.48h6.84c1.38,0,2.51.22,3.41.65s1.57,1.03,2.02,1.78c.45.75.66,1.59.66,2.52,0,1-.22,1.84-.65,2.51-.44.66-1,1.18-1.69,1.53-.69.36-1.44.56-2.21.64l.39-.28c.83.02,1.6.24,2.31.66s1.27,1,1.68,1.72.62,1.54.62,2.43c0,.98-.24,1.88-.72,2.68-.49.81-1.19,1.45-2.13,1.92s-2.09.71-3.47.71h-7.07,0ZM194.95,278.47h4.34c1.26,0,2.22-.3,2.88-.89.66-.59.99-1.4.99-2.43s-.33-1.77-.99-2.37-1.64-.89-2.96-.89h-4.26v6.57h0ZM194.95,287.49h4.49c1.32,0,2.35-.31,3.08-.93s1.1-1.49,1.1-2.61-.38-1.97-1.13-2.63-1.78-.99-3.1-.99h-4.43v7.15h0Z"/>
    <path class="cls-1" d="M218.95,289.44v-7.41l-6.35-12.08h2.64l5.23,10.55h-.69l5.21-10.55h2.61l-6.32,12.08v7.41h-2.34Z"/>
    <path class="cls-1" d="M248.81,289.44v-19.48h5.73c2.28,0,4.17.4,5.66,1.18,1.49.79,2.59,1.91,3.3,3.37.71,1.46,1.07,3.21,1.07,5.25s-.36,3.73-1.07,5.18c-.71,1.45-1.81,2.57-3.3,3.34-1.49.77-3.37,1.17-5.66,1.17h-5.73ZM251.15,287.49h3.34c1.89,0,3.4-.31,4.53-.93,1.12-.62,1.92-1.52,2.41-2.67s.72-2.54.72-4.13-.24-3.03-.72-4.2-1.29-2.07-2.41-2.7c-1.12-.63-2.63-.95-4.53-.95h-3.34v15.59Z"/>
    <path class="cls-1" d="M273.54,289.44v-19.48h12.05v1.92h-9.72v6.79h8.88v1.89h-8.88v6.96h9.72v1.92h-12.05Z"/>
    <path class="cls-1" d="M293.59,289.44l7.18-19.48h2.48l7.15,19.48h-2.48l-5.93-16.56-5.95,16.56h-2.45ZM296.87,284.43l.66-1.89h8.83l.66,1.89h-10.16,0Z"/>
    <path class="cls-1" d="M318.89,289.44v-19.48h2.34v17.62h9.07v1.86h-11.41,0Z"/>
    <path class="cls-1" d="M341.19,289.44l-5.35-19.48h2.51l4.2,16.7,4.76-16.7h2.61l4.65,16.76,4.26-16.76h2.51l-5.46,19.48h-2.67l-4.65-16.12-4.76,16.12h-2.61,0Z"/>
    <path class="cls-1" d="M369.7,289.44v-19.48h2.34v19.48h-2.34Z"/>
    <path class="cls-1" d="M387.99,289.78c-1.43,0-2.67-.26-3.73-.78-1.06-.52-1.87-1.25-2.45-2.17-.57-.93-.86-2-.86-3.23h2.45c0,.76.18,1.47.52,2.1.36.64.87,1.15,1.55,1.54.67.38,1.52.57,2.52.57.87,0,1.61-.14,2.24-.44.62-.29,1.1-.68,1.42-1.18.33-.51.49-1.07.49-1.69,0-.76-.16-1.38-.49-1.85s-.76-.86-1.33-1.16c-.55-.3-1.2-.56-1.93-.79s-1.5-.49-2.3-.76c-1.55-.52-2.67-1.17-3.4-1.93-.72-.77-1.09-1.77-1.09-3.02,0-1.06.25-1.98.74-2.78s1.2-1.43,2.12-1.88,2.01-.68,3.27-.68,2.33.23,3.24.69c.92.47,1.63,1.1,2.16,1.91.52.8.78,1.74.78,2.79h-2.45c0-.53-.14-1.07-.42-1.58s-.7-.95-1.27-1.3-1.28-.52-2.13-.52c-.7-.02-1.33.1-1.88.35-.54.25-.97.6-1.28,1.07-.31.47-.46,1.03-.46,1.69s.14,1.14.41,1.53c.27.39.66.72,1.17.99.52.27,1.11.52,1.79.74s1.45.48,2.28.75c.95.32,1.78.7,2.52,1.16.73.46,1.31,1.03,1.72,1.74.42.7.62,1.6.62,2.7,0,.93-.25,1.8-.74,2.63-.5.82-1.22,1.5-2.19,2.02-.96.52-2.18.78-3.65.78l.03-.02Z"/>
    <path class="cls-1" d="M403.49,289.44v-19.48h12.05v1.92h-9.72v6.79h8.88v1.89h-8.88v6.96h9.72v1.92h-12.05Z"/>
  </g>
</svg>